<svg width="568" height="568" viewBox="0 0 568 568" fill="none" xmlns="http://www.w3.org/2000/svg">
<g id="BG_image_text" clip-path="url(#clip0_336_4277)">
<rect width="568" height="568" fill="#080B29"/>
<path id="Vector 18" d="M396.081 33.0605L396.136 32.7185L396.451 32.7694L396.426 33.0873L396.081 33.0605ZM330.025 69.4326H329.678L329.863 69.1263L330.025 69.4326ZM366.104 28.2161L365.786 28.0788L365.893 27.8311L366.16 27.8741L366.104 28.2161ZM330.025 81.3378L329.969 81.6797L329.678 81.632V81.3378H330.025ZM369.427 87.8048L369.646 88.0732L369.525 88.172L369.37 88.1467L369.427 87.8048ZM396.41 33.1689C393.588 41.7338 384.292 62.9205 369.655 75.8098L369.198 75.2898C383.698 62.5202 392.945 41.471 395.752 32.9521L396.41 33.1689ZM329.863 69.1263C335.61 66.0927 342.654 60.3242 349.236 53.0557C355.815 45.7897 361.914 37.0463 365.786 28.0788L366.422 28.3535C362.513 37.4067 356.367 46.213 349.749 53.5208C343.134 60.8261 336.028 66.6555 330.187 69.739L329.863 69.1263ZM366.16 27.8741L396.136 32.7185L396.025 33.4025L366.049 28.5581L366.16 27.8741ZM330.078 69.0903L369.48 75.2074L369.373 75.8921L329.972 69.775L330.078 69.0903ZM330.371 69.4326V81.3378H329.678V69.4326H330.371ZM330.081 80.9959L369.483 87.4629L369.37 88.1467L329.969 81.6797L330.081 80.9959ZM369.207 87.5364C372.416 84.9173 378.556 77.6815 384.146 67.885C389.732 58.0945 394.745 45.7867 395.735 33.0337L396.426 33.0873C395.425 45.9771 390.364 58.3854 384.748 68.2283C379.135 78.0652 372.944 85.3802 369.646 88.0732L369.207 87.5364ZM369.773 75.5498V87.8048H369.08V75.5498H369.773Z" fill="#0077FF"/>
<g id="&#208;&#146;&#209;&#139;&#208;&#191;&#208;&#190;&#208;&#187;&#208;&#189;&#209;&#143;&#208;&#185;&#209;&#130;&#208;&#181; &#208;&#183;&#208;&#176;&#208;&#180;&#208;&#176;&#208;&#189;&#208;&#184;&#209;&#143;, &#208;&#191;&#209;&#128;&#208;&#184;&#209;&#129;&#209;&#139;&#208;&#187;&#208;&#176;&#208;&#185;&#209;&#130;&#208;&#181; &#209;&#132;&#208;&#190;&#209;&#130;&#208;&#190;, &#208;&#183;&#208;&#176;&#208;&#186;&#209;&#128;&#209;&#139;&#208;&#178;&#208;&#176;&#208;&#185;&#209;&#130;&#208;&#181; &#209;&#129;&#209;&#130;&#209;&#128;&#208;&#190;&#208;&#186;&#209;&#131; &#208;&#184;&#208;&#187;&#208;&#184; &#209;&#129;&#209;&#130;&#208;&#190;&#208;&#187;&#208;&#177;&#208;&#181;&#209;&#134; &#208;&#184; &#208;&#191;&#208;&#190;&#208;&#187;&#209;&#131;&#209;&#135;&#208;&#176;&#208;&#185;&#209;&#130;&#208;&#181; &#208;&#180;&#208;&#190;&#208;&#191;&#208;&#190;&#208;&#187;&#208;&#189;&#208;&#184;&#209;&#130;&#208;&#181;&#208;&#187;&#209;&#140;&#208;&#189;&#209;&#139;&#208;&#181; &#208;&#177;&#208;&#176;&#208;&#187;&#208;&#187;&#209;&#139; &#208;&#178; &#194;&#171;&#208;&#146;e&#208;&#183;&#208;&#180;&#208;&#181;&#208;&#186;&#208;&#190;&#208;&#180; Store&#194;&#187;">
<path d="M15.7615 103.949C16.2266 104.086 16.5915 104.334 16.8561 104.695C17.1288 105.056 17.2651 105.481 17.2651 105.97C17.2651 106.411 17.1489 106.808 16.9163 107.161C16.6837 107.514 16.3589 107.791 15.9419 107.991C15.5329 108.184 15.0638 108.28 14.5345 108.28H11.2023V99.7993H14.33C14.8593 99.7993 15.3284 99.8955 15.7374 100.088C16.1544 100.28 16.4752 100.553 16.6998 100.906C16.9323 101.251 17.0486 101.648 17.0486 102.097C17.0486 102.538 16.9323 102.923 16.6998 103.252C16.4672 103.581 16.1544 103.813 15.7615 103.949ZM12.2248 100.726V103.564H14.33C14.8192 103.564 15.2161 103.436 15.5209 103.18C15.8336 102.915 15.99 102.57 15.99 102.145C15.99 101.72 15.8336 101.379 15.5209 101.123C15.2161 100.858 14.8192 100.726 14.33 100.726H12.2248ZM14.5345 107.354C15.0317 107.354 15.4327 107.221 15.7374 106.957C16.0502 106.684 16.2066 106.335 16.2066 105.91C16.2066 105.485 16.0502 105.14 15.7374 104.876C15.4327 104.603 15.0317 104.467 14.5345 104.467H12.2248V107.354H14.5345ZM18.7061 108.28V102.109H19.6685V103.973H20.7632C21.2283 103.973 21.6453 104.066 22.0142 104.25C22.3831 104.435 22.6678 104.691 22.8683 105.02C23.0768 105.341 23.1811 105.71 23.1811 106.127C23.1811 106.544 23.0768 106.917 22.8683 107.245C22.6598 107.566 22.3711 107.819 22.0022 108.003C21.6413 108.188 21.2283 108.28 20.7632 108.28H18.7061ZM24.9373 108.28H23.975V102.109H24.9373V108.28ZM20.7632 107.414C21.1882 107.414 21.537 107.294 21.8097 107.053C22.0824 106.812 22.2187 106.504 22.2187 106.127C22.2187 105.75 22.0824 105.441 21.8097 105.2C21.537 104.96 21.1882 104.84 20.7632 104.84H19.6685V107.414H20.7632ZM27.5862 108.28H26.6239V102.109H31.6883V108.28H30.7259V102.987H27.5862V108.28ZM36.2179 108.4C35.6004 108.4 35.047 108.264 34.5578 107.991C34.0686 107.719 33.6877 107.338 33.415 106.849C33.1424 106.359 33.006 105.806 33.006 105.188C33.006 104.571 33.1424 104.022 33.415 103.54C33.6877 103.051 34.0686 102.67 34.5578 102.398C35.047 102.125 35.6004 101.989 36.2179 101.989C36.8354 101.989 37.3887 102.125 37.8779 102.398C38.3751 102.67 38.7601 103.051 39.0328 103.54C39.3054 104.022 39.4418 104.571 39.4418 105.188C39.4418 105.806 39.3054 106.359 39.0328 106.849C38.7601 107.338 38.3792 107.719 37.89 107.991C37.4008 108.264 36.8434 108.4 36.2179 108.4ZM36.2179 107.51C36.8755 107.51 37.4088 107.298 37.8178 106.873C38.2268 106.44 38.4313 105.878 38.4313 105.188C38.4313 104.739 38.3391 104.338 38.1546 103.986C37.9702 103.633 37.7095 103.36 37.3727 103.168C37.0359 102.967 36.6509 102.867 36.2179 102.867C35.7848 102.867 35.3999 102.967 35.0631 103.168C34.7343 103.36 34.4776 103.633 34.2932 103.986C34.1087 104.338 34.0165 104.739 34.0165 105.188C34.0165 105.646 34.1087 106.051 34.2932 106.403C34.4776 106.756 34.7343 107.029 35.0631 107.221C35.3999 107.414 35.7848 107.51 36.2179 107.51ZM41.4591 102.109H45.6092V108.28H44.6469V102.987H42.3493L42.1448 106.235C42.1047 106.925 41.9283 107.45 41.6155 107.811C41.3108 108.164 40.8937 108.34 40.3644 108.34C40.2201 108.34 40.0637 108.328 39.8953 108.304L39.8111 107.378C39.9153 107.386 40.0477 107.39 40.2081 107.39C40.5609 107.39 40.8055 107.31 40.9419 107.149C41.0782 106.989 41.1624 106.692 41.1945 106.259L41.4591 102.109ZM51.4498 104.719V102.109H52.4121V108.28H51.4498V105.597H48.25V108.28H47.2876V102.109H48.25V104.719H51.4498ZM58.6843 102.109V108.28H57.722V106.067H56.3025L54.847 108.28H53.7403L55.3161 105.934C54.883 105.798 54.5382 105.565 54.2816 105.237C54.0249 104.9 53.8966 104.515 53.8966 104.082C53.8966 103.705 53.9929 103.368 54.1853 103.071C54.3858 102.767 54.6585 102.53 55.0033 102.362C55.3562 102.193 55.7532 102.109 56.1942 102.109H58.6843ZM57.722 105.188V102.975H56.1942C55.8013 102.975 55.4805 103.079 55.2319 103.288C54.9913 103.488 54.871 103.753 54.871 104.082C54.871 104.411 54.9913 104.679 55.2319 104.888C55.4805 105.088 55.8013 105.188 56.1942 105.188H57.722ZM61.8659 108.28H60.3743V102.109H61.3126V107.258H61.481L64.1996 102.109H65.6912V108.28H64.753V103.131H64.5966L61.8659 108.28ZM63.0328 101.231C62.5436 101.231 62.1346 101.102 61.8058 100.846C61.485 100.589 61.2885 100.2 61.2163 99.679H62.0343C62.0824 99.9436 62.1907 100.144 62.3591 100.28C62.5275 100.417 62.7521 100.485 63.0328 100.485C63.3134 100.485 63.538 100.417 63.7064 100.28C63.8828 100.144 63.9911 99.9436 64.0312 99.679H64.8492C64.785 100.2 64.5886 100.589 64.2597 100.846C63.9309 101.102 63.5219 101.231 63.0328 101.231ZM69.8778 108.28H68.9155V102.987H66.7743V102.109H72.0191V102.987H69.8778V108.28ZM78.7441 105.176C78.7441 105.281 78.7401 105.381 78.7321 105.477H73.5114C73.5675 106.095 73.7961 106.588 74.197 106.957C74.598 107.326 75.1073 107.51 75.7248 107.51C76.1578 107.51 76.5428 107.422 76.8796 107.245C77.2164 107.069 77.465 106.836 77.6254 106.548L78.5276 106.692C78.279 107.245 77.8981 107.671 77.3848 107.967C76.8716 108.256 76.3022 108.4 75.6767 108.4C75.0591 108.4 74.5098 108.264 74.0286 107.991C73.5475 107.719 73.1705 107.338 72.8979 106.849C72.6332 106.359 72.5009 105.806 72.5009 105.188C72.5009 104.571 72.6332 104.022 72.8979 103.54C73.1625 103.051 73.5314 102.67 74.0046 102.398C74.4777 102.125 75.015 101.989 75.6165 101.989C76.218 101.989 76.7553 102.125 77.2284 102.398C77.7016 102.67 78.0705 103.051 78.3351 103.54C78.6078 104.022 78.7441 104.567 78.7441 105.176ZM75.6165 102.855C75.0872 102.855 74.6341 103.019 74.2572 103.348C73.8883 103.669 73.6517 104.102 73.5475 104.647H77.6976C77.6014 104.11 77.3648 103.677 76.9879 103.348C76.619 103.019 76.1618 102.855 75.6165 102.855ZM86.0953 105.116C86.4001 105.221 86.6527 105.401 86.8532 105.658C87.0536 105.906 87.1539 106.211 87.1539 106.572C87.1539 106.909 87.0577 107.217 86.8652 107.498C86.6727 107.779 86.4001 107.999 86.0472 108.16C85.7023 108.32 85.3014 108.4 84.8443 108.4C84.2187 108.4 83.6734 108.252 83.2083 107.955C82.7431 107.658 82.4384 107.253 82.294 106.74L83.1842 106.596C83.3205 106.917 83.529 107.157 83.8097 107.318C84.0984 107.47 84.4393 107.546 84.8322 107.546C85.2653 107.546 85.5981 107.458 85.8307 107.282C86.0632 107.097 86.1795 106.844 86.1795 106.524C86.1795 106.235 86.0712 106.006 85.8547 105.838C85.6382 105.662 85.2974 105.573 84.8322 105.573H83.9781V104.707H84.8322C85.2332 104.707 85.542 104.627 85.7585 104.467C85.975 104.306 86.0833 104.09 86.0833 103.817C86.0833 103.52 85.963 103.284 85.7224 103.107C85.4818 102.931 85.1851 102.843 84.8322 102.843C84.5034 102.843 84.2067 102.923 83.9421 103.083C83.6854 103.236 83.493 103.452 83.3646 103.733L82.4624 103.577C82.6469 103.071 82.9556 102.682 83.3887 102.41C83.8218 102.129 84.315 101.989 84.8683 101.989C85.2773 101.989 85.6462 102.065 85.975 102.217C86.3118 102.37 86.5765 102.578 86.769 102.843C86.9614 103.107 87.0577 103.408 87.0577 103.745C87.0577 104.074 86.9694 104.362 86.793 104.611C86.6166 104.852 86.384 105.02 86.0953 105.116ZM90.9253 101.989C91.6631 101.989 92.2445 102.237 92.6695 102.734C93.1026 103.224 93.3191 103.921 93.3191 104.828V108.28H92.6695L92.4049 107.306C91.9157 108.035 91.234 108.4 90.3599 108.4C89.7344 108.4 89.2211 108.22 88.8201 107.859C88.4272 107.498 88.2307 107.033 88.2307 106.464C88.2307 105.878 88.4593 105.413 88.9164 105.068C89.3815 104.715 90.0471 104.539 90.9133 104.539H92.3568C92.3247 103.977 92.1804 103.552 91.9237 103.264C91.6671 102.967 91.3223 102.819 90.8892 102.819C90.5764 102.819 90.2917 102.891 90.0351 103.035C89.7865 103.18 89.594 103.38 89.4577 103.637L88.5555 103.492C88.7319 103.027 89.0327 102.662 89.4577 102.398C89.8908 102.125 90.38 101.989 90.9253 101.989ZM90.5403 107.57C91.0777 107.57 91.5147 107.394 91.8515 107.041C92.1884 106.688 92.3568 106.183 92.3568 105.525V105.369H90.9253C89.7785 105.369 89.2051 105.726 89.2051 106.44C89.2051 106.784 89.3254 107.061 89.566 107.27C89.8066 107.47 90.1313 107.57 90.5403 107.57ZM94.1679 110.108V107.39H94.2761C94.621 107.39 94.8816 107.237 95.058 106.933C95.2425 106.628 95.3668 106.115 95.4309 105.393L95.7196 102.109H99.9059V107.39H100.94V110.108H99.978V108.28H95.1302V110.108H94.1679ZM98.9435 107.39V102.987H96.6098L96.3933 105.417C96.3452 105.962 96.273 106.391 96.1768 106.704C96.0885 107.009 95.9642 107.237 95.8039 107.39H98.9435ZM104.235 101.989C104.973 101.989 105.554 102.237 105.979 102.734C106.412 103.224 106.629 103.921 106.629 104.828V108.28H105.979L105.715 107.306C105.226 108.035 104.544 108.4 103.67 108.4C103.044 108.4 102.531 108.22 102.13 107.859C101.737 107.498 101.541 107.033 101.541 106.464C101.541 105.878 101.769 105.413 102.226 105.068C102.691 104.715 103.357 104.539 104.223 104.539H105.667C105.635 103.977 105.49 103.552 105.234 103.264C104.977 102.967 104.632 102.819 104.199 102.819C103.886 102.819 103.602 102.891 103.345 103.035C103.096 103.18 102.904 103.38 102.768 103.637L101.865 103.492C102.042 103.027 102.343 102.662 102.768 102.398C103.201 102.125 103.69 101.989 104.235 101.989ZM103.85 107.57C104.387 107.57 104.825 107.394 105.161 107.041C105.498 106.688 105.667 106.183 105.667 105.525V105.369H104.235C103.088 105.369 102.515 105.726 102.515 106.44C102.515 106.784 102.635 107.061 102.876 107.27C103.116 107.47 103.441 107.57 103.85 107.57ZM112.419 104.719V102.109H113.381V108.28H112.419V105.597H109.219V108.28H108.257V102.109H109.219V104.719H112.419ZM116.562 108.28H115.07V102.109H116.009V107.258H116.177L118.896 102.109H120.387V108.28H119.449V103.131H119.293L116.562 108.28ZM126.655 102.109V108.28H125.693V106.067H124.273L122.818 108.28H121.711L123.287 105.934C122.854 105.798 122.509 105.565 122.252 105.237C121.996 104.9 121.867 104.515 121.867 104.082C121.867 103.705 121.963 103.368 122.156 103.071C122.356 102.767 122.629 102.53 122.974 102.362C123.327 102.193 123.724 102.109 124.165 102.109H126.655ZM125.693 105.188V102.975H124.165C123.772 102.975 123.451 103.079 123.203 103.288C122.962 103.488 122.842 103.753 122.842 104.082C122.842 104.411 122.962 104.679 123.203 104.888C123.451 105.088 123.772 105.188 124.165 105.188H125.693ZM128.91 109.687H128.152L128.573 107.149H129.56L128.91 109.687ZM135.169 108.28H134.207V102.109H139.271V108.28H138.309V102.987H135.169V108.28ZM140.95 110.746V102.109H141.599L141.888 103.155C142.137 102.819 142.458 102.542 142.851 102.325C143.252 102.101 143.721 101.989 144.258 101.989C144.835 101.989 145.353 102.125 145.81 102.398C146.275 102.67 146.636 103.051 146.892 103.54C147.149 104.022 147.277 104.571 147.277 105.188C147.277 105.806 147.149 106.359 146.892 106.849C146.636 107.338 146.275 107.719 145.81 107.991C145.353 108.264 144.835 108.4 144.258 108.4C143.729 108.4 143.268 108.292 142.875 108.075C142.49 107.859 142.169 107.586 141.912 107.258V110.746H140.95ZM144.09 107.522C144.515 107.522 144.892 107.426 145.22 107.233C145.557 107.033 145.814 106.756 145.99 106.403C146.175 106.051 146.267 105.646 146.267 105.188C146.267 104.739 146.175 104.338 145.99 103.986C145.814 103.633 145.557 103.36 145.22 103.168C144.892 102.967 144.515 102.867 144.09 102.867C143.665 102.867 143.288 102.967 142.959 103.168C142.63 103.36 142.373 103.633 142.189 103.986C142.004 104.338 141.912 104.739 141.912 105.188C141.912 105.646 142.004 106.051 142.189 106.403C142.373 106.756 142.63 107.033 142.959 107.233C143.288 107.426 143.665 107.522 144.09 107.522ZM150.089 108.28H148.597V102.109H149.536V107.258H149.704L152.423 102.109H153.914V108.28H152.976V103.131H152.82L150.089 108.28ZM158.414 108.4C157.796 108.4 157.247 108.264 156.766 107.991C156.285 107.719 155.908 107.338 155.635 106.849C155.37 106.359 155.238 105.806 155.238 105.188C155.238 104.571 155.37 104.022 155.635 103.54C155.908 103.051 156.285 102.67 156.766 102.398C157.255 102.125 157.804 101.989 158.414 101.989C159.047 101.989 159.621 102.141 160.134 102.446C160.647 102.742 161.024 103.172 161.265 103.733L160.351 103.889C160.198 103.585 159.954 103.34 159.617 103.155C159.28 102.963 158.899 102.867 158.474 102.867C158.041 102.867 157.656 102.963 157.319 103.155C156.982 103.348 156.718 103.621 156.525 103.973C156.341 104.326 156.249 104.731 156.249 105.188C156.249 105.886 156.453 106.448 156.862 106.873C157.271 107.298 157.808 107.51 158.474 107.51C158.923 107.51 159.32 107.41 159.665 107.209C160.018 107.001 160.266 106.736 160.411 106.415L161.313 106.572C161.08 107.157 160.699 107.61 160.17 107.931C159.649 108.244 159.063 108.4 158.414 108.4ZM162.401 108.28V102.109H163.363V103.973H164.458C164.923 103.973 165.34 104.066 165.709 104.25C166.078 104.435 166.362 104.691 166.563 105.02C166.771 105.341 166.876 105.71 166.876 106.127C166.876 106.544 166.771 106.917 166.563 107.245C166.354 107.566 166.066 107.819 165.697 108.003C165.336 108.188 164.923 108.28 164.458 108.28H162.401ZM168.632 108.28H167.67V102.109H168.632V108.28ZM164.458 107.414C164.883 107.414 165.232 107.294 165.504 107.053C165.777 106.812 165.913 106.504 165.913 106.127C165.913 105.75 165.777 105.441 165.504 105.2C165.232 104.96 164.883 104.84 164.458 104.84H163.363V107.414H164.458ZM171.245 102.109H175.395V108.28H174.433V102.987H172.135L171.93 106.235C171.89 106.925 171.714 107.45 171.401 107.811C171.096 108.164 170.679 108.34 170.15 108.34C170.006 108.34 169.849 108.328 169.681 108.304L169.597 107.378C169.701 107.386 169.833 107.39 169.994 107.39C170.347 107.39 170.591 107.31 170.727 107.149C170.864 106.989 170.948 106.692 170.98 106.259L171.245 102.109ZM179.407 101.989C180.145 101.989 180.726 102.237 181.151 102.734C181.584 103.224 181.801 103.921 181.801 104.828V108.28H181.151L180.887 107.306C180.397 108.035 179.716 108.4 178.842 108.4C178.216 108.4 177.703 108.22 177.302 107.859C176.909 107.498 176.712 107.033 176.712 106.464C176.712 105.878 176.941 105.413 177.398 105.068C177.863 104.715 178.529 104.539 179.395 104.539H180.838C180.806 103.977 180.662 103.552 180.405 103.264C180.149 102.967 179.804 102.819 179.371 102.819C179.058 102.819 178.773 102.891 178.517 103.035C178.268 103.18 178.076 103.38 177.939 103.637L177.037 103.492C177.214 103.027 177.514 102.662 177.939 102.398C178.372 102.125 178.862 101.989 179.407 101.989ZM179.022 107.57C179.559 107.57 179.996 107.394 180.333 107.041C180.67 106.688 180.838 106.183 180.838 105.525V105.369H179.407C178.26 105.369 177.687 105.726 177.687 106.44C177.687 106.784 177.807 107.061 178.048 107.27C178.288 107.47 178.613 107.57 179.022 107.57ZM184.92 108.28H183.429V102.109H184.367V107.258H184.535L187.254 102.109H188.746V108.28H187.807V103.131H187.651L184.92 108.28ZM186.087 101.231C185.598 101.231 185.189 101.102 184.86 100.846C184.539 100.589 184.343 100.2 184.271 99.679H185.089C185.137 99.9436 185.245 100.144 185.413 100.28C185.582 100.417 185.806 100.485 186.087 100.485C186.368 100.485 186.592 100.417 186.761 100.28C186.937 100.144 187.045 99.9436 187.086 99.679H187.904C187.839 100.2 187.643 100.589 187.314 100.846C186.985 101.102 186.576 101.231 186.087 101.231ZM192.932 108.28H191.97V102.987H189.829V102.109H195.073V102.987H192.932V108.28ZM201.798 105.176C201.798 105.281 201.794 105.381 201.786 105.477H196.566C196.622 106.095 196.85 106.588 197.251 106.957C197.652 107.326 198.162 107.51 198.779 107.51C199.212 107.51 199.597 107.422 199.934 107.245C200.271 107.069 200.519 106.836 200.68 106.548L201.582 106.692C201.333 107.245 200.952 107.671 200.439 107.967C199.926 108.256 199.357 108.4 198.731 108.4C198.113 108.4 197.564 108.264 197.083 107.991C196.602 107.719 196.225 107.338 195.952 106.849C195.688 106.359 195.555 105.806 195.555 105.188C195.555 104.571 195.688 104.022 195.952 103.54C196.217 103.051 196.586 102.67 197.059 102.398C197.532 102.125 198.069 101.989 198.671 101.989C199.272 101.989 199.81 102.125 200.283 102.398C200.756 102.67 201.125 103.051 201.389 103.54C201.662 104.022 201.798 104.567 201.798 105.176ZM198.671 102.855C198.142 102.855 197.688 103.019 197.312 103.348C196.943 103.669 196.706 104.102 196.602 104.647H200.752C200.656 104.11 200.419 103.677 200.042 103.348C199.673 103.019 199.216 102.855 198.671 102.855ZM14.0172 122.304C13.3837 122.304 12.8143 122.172 12.309 121.907C11.8118 121.642 11.4229 121.274 11.1422 120.8C10.8615 120.319 10.7212 119.778 10.7212 119.176C10.7212 118.575 10.8615 118.042 11.1422 117.577C11.4229 117.103 11.8118 116.734 12.309 116.47C12.8143 116.205 13.3837 116.073 14.0172 116.073V113.799H14.9555V116.073C15.589 116.073 16.1544 116.205 16.6516 116.47C17.1569 116.734 17.5498 117.103 17.8305 117.577C18.1112 118.042 18.2515 118.575 18.2515 119.176C18.2515 119.778 18.1112 120.319 17.8305 120.8C17.5498 121.274 17.1569 121.642 16.6516 121.907C16.1544 122.172 15.589 122.304 14.9555 122.304V124.746H14.0172V122.304ZM14.0172 116.951C13.5761 116.951 13.1792 117.047 12.8263 117.24C12.4815 117.424 12.2128 117.685 12.0203 118.022C11.8279 118.358 11.7316 118.743 11.7316 119.176C11.7316 119.617 11.8279 120.01 12.0203 120.355C12.2128 120.692 12.4815 120.957 12.8263 121.149C13.1792 121.334 13.5761 121.426 14.0172 121.426V116.951ZM14.9555 121.426C15.3966 121.426 15.7895 121.334 16.1344 121.149C16.4872 120.957 16.7599 120.692 16.9524 120.355C17.1529 120.01 17.2531 119.617 17.2531 119.176C17.2531 118.743 17.1529 118.358 16.9524 118.022C16.7599 117.685 16.4872 117.424 16.1344 117.24C15.7895 117.047 15.3966 116.951 14.9555 116.951V121.426ZM22.4264 122.4C21.8089 122.4 21.2555 122.264 20.7663 121.991C20.2772 121.719 19.8962 121.338 19.6236 120.849C19.3509 120.359 19.2146 119.806 19.2146 119.188C19.2146 118.571 19.3509 118.022 19.6236 117.54C19.8962 117.051 20.2772 116.67 20.7663 116.398C21.2555 116.125 21.8089 115.989 22.4264 115.989C23.0439 115.989 23.5973 116.125 24.0865 116.398C24.5837 116.67 24.9686 117.051 25.2413 117.54C25.5139 118.022 25.6503 118.571 25.6503 119.188C25.6503 119.806 25.5139 120.359 25.2413 120.849C24.9686 121.338 24.5877 121.719 24.0985 121.991C23.6093 122.264 23.0519 122.4 22.4264 122.4ZM22.4264 121.51C23.084 121.51 23.6173 121.298 24.0263 120.873C24.4353 120.44 24.6398 119.878 24.6398 119.188C24.6398 118.739 24.5476 118.338 24.3631 117.986C24.1787 117.633 23.918 117.36 23.5812 117.168C23.2444 116.967 22.8595 116.867 22.4264 116.867C21.9933 116.867 21.6084 116.967 21.2716 117.168C20.9428 117.36 20.6861 117.633 20.5017 117.986C20.3172 118.338 20.225 118.739 20.225 119.188C20.225 119.646 20.3172 120.051 20.5017 120.403C20.6861 120.756 20.9428 121.029 21.2716 121.221C21.6084 121.414 21.9933 121.51 22.4264 121.51ZM29.2435 122.28H28.2811V116.987H26.1399V116.109H31.3847V116.987H29.2435V122.28ZM35.0784 122.4C34.4609 122.4 33.9075 122.264 33.4183 121.991C32.9291 121.719 32.5482 121.338 32.2755 120.849C32.0029 120.359 31.8665 119.806 31.8665 119.188C31.8665 118.571 32.0029 118.022 32.2755 117.54C32.5482 117.051 32.9291 116.67 33.4183 116.398C33.9075 116.125 34.4609 115.989 35.0784 115.989C35.6959 115.989 36.2492 116.125 36.7384 116.398C37.2356 116.67 37.6206 117.051 37.8933 117.54C38.1659 118.022 38.3023 118.571 38.3023 119.188C38.3023 119.806 38.1659 120.359 37.8933 120.849C37.6206 121.338 37.2397 121.719 36.7505 121.991C36.2613 122.264 35.7039 122.4 35.0784 122.4ZM35.0784 121.51C35.736 121.51 36.2693 121.298 36.6783 120.873C37.0873 120.44 37.2918 119.878 37.2918 119.188C37.2918 118.739 37.1996 118.338 37.0151 117.986C36.8307 117.633 36.57 117.36 36.2332 117.168C35.8964 116.967 35.5114 116.867 35.0784 116.867C34.6453 116.867 34.2604 116.967 33.9236 117.168C33.5948 117.36 33.3381 117.633 33.1537 117.986C32.9692 118.338 32.877 118.739 32.877 119.188C32.877 119.646 32.9692 120.051 33.1537 120.403C33.3381 120.756 33.5948 121.029 33.9236 121.221C34.2604 121.414 34.6453 121.51 35.0784 121.51ZM40.1937 123.687H39.4358L39.8569 121.149H40.8433L40.1937 123.687ZM48.7502 119.116C49.055 119.221 49.3076 119.401 49.5081 119.658C49.7086 119.906 49.8088 120.211 49.8088 120.572C49.8088 120.909 49.7126 121.217 49.5201 121.498C49.3276 121.779 49.055 121.999 48.7021 122.16C48.3573 122.32 47.9563 122.4 47.4992 122.4C46.8736 122.4 46.3283 122.252 45.8632 121.955C45.398 121.658 45.0933 121.253 44.9489 120.74L45.8391 120.596C45.9755 120.917 46.184 121.157 46.4646 121.318C46.7534 121.47 47.0942 121.546 47.4871 121.546C47.9202 121.546 48.253 121.458 48.4856 121.282C48.7181 121.097 48.8344 120.844 48.8344 120.524C48.8344 120.235 48.7262 120.006 48.5096 119.838C48.2931 119.662 47.9523 119.573 47.4871 119.573H46.6331V118.707H47.4871C47.8881 118.707 48.1969 118.627 48.4134 118.467C48.6299 118.306 48.7382 118.09 48.7382 117.817C48.7382 117.52 48.6179 117.284 48.3773 117.107C48.1367 116.931 47.84 116.843 47.4871 116.843C47.1583 116.843 46.8616 116.923 46.597 117.083C46.3403 117.236 46.1479 117.452 46.0196 117.733L45.1174 117.577C45.3018 117.071 45.6106 116.682 46.0436 116.41C46.4767 116.129 46.9699 115.989 47.5232 115.989C47.9322 115.989 48.3011 116.065 48.6299 116.217C48.9668 116.37 49.2314 116.578 49.4239 116.843C49.6163 117.107 49.7126 117.408 49.7126 117.745C49.7126 118.074 49.6244 118.362 49.4479 118.611C49.2715 118.852 49.0389 119.02 48.7502 119.116ZM53.5802 115.989C54.318 115.989 54.8994 116.237 55.3245 116.734C55.7575 117.224 55.9741 117.921 55.9741 118.828V122.28H55.3245L55.0598 121.306C54.5706 122.035 53.889 122.4 53.0148 122.4C52.3893 122.4 51.876 122.22 51.4751 121.859C51.0821 121.498 50.8856 121.033 50.8856 120.464C50.8856 119.878 51.1142 119.413 51.5713 119.068C52.0364 118.715 52.7021 118.539 53.5682 118.539H55.0117C54.9796 117.977 54.8353 117.552 54.5786 117.264C54.322 116.967 53.9772 116.819 53.5441 116.819C53.2314 116.819 52.9467 116.891 52.69 117.035C52.4414 117.18 52.249 117.38 52.1126 117.637L51.2104 117.492C51.3869 117.027 51.6876 116.662 52.1126 116.398C52.5457 116.125 53.0349 115.989 53.5802 115.989ZM53.1953 121.57C53.7326 121.57 54.1696 121.394 54.5065 121.041C54.8433 120.688 55.0117 120.183 55.0117 119.525V119.369H53.5802C52.4334 119.369 51.86 119.726 51.86 120.44C51.86 120.784 51.9803 121.061 52.2209 121.27C52.4615 121.47 52.7863 121.57 53.1953 121.57ZM62.6662 122.28H61.3911L58.9371 119.609H58.5642V122.28H57.6019V116.109H58.5642V118.695H58.9492L61.2588 116.109H62.4256L59.7311 119.104L62.6662 122.28ZM63.5696 124.746V116.109H64.2192L64.5079 117.155C64.7565 116.819 65.0772 116.542 65.4702 116.325C65.8712 116.101 66.3403 115.989 66.8776 115.989C67.4551 115.989 67.9723 116.125 68.4294 116.398C68.8946 116.67 69.2554 117.051 69.5121 117.54C69.7687 118.022 69.897 118.571 69.897 119.188C69.897 119.806 69.7687 120.359 69.5121 120.849C69.2554 121.338 68.8946 121.719 68.4294 121.991C67.9723 122.264 67.4551 122.4 66.8776 122.4C66.3483 122.4 65.8872 122.292 65.4943 122.075C65.1093 121.859 64.7885 121.586 64.5319 121.258V124.746H63.5696ZM66.7092 121.522C67.1343 121.522 67.5112 121.426 67.84 121.233C68.1768 121.033 68.4334 120.756 68.6099 120.403C68.7943 120.051 68.8865 119.646 68.8865 119.188C68.8865 118.739 68.7943 118.338 68.6099 117.986C68.4334 117.633 68.1768 117.36 67.84 117.168C67.5112 116.967 67.1343 116.867 66.7092 116.867C66.2842 116.867 65.9073 116.967 65.5785 117.168C65.2497 117.36 64.993 117.633 64.8086 117.986C64.6241 118.338 64.5319 118.739 64.5319 119.188C64.5319 119.646 64.6241 120.051 64.8086 120.403C64.993 120.756 65.2497 121.033 65.5785 121.233C65.9073 121.426 66.2842 121.522 66.7092 121.522ZM71.2171 122.28V116.109H72.1795V117.973H73.2742C73.7393 117.973 74.1563 118.066 74.5252 118.25C74.8941 118.435 75.1788 118.691 75.3793 119.02C75.5878 119.341 75.6921 119.71 75.6921 120.127C75.6921 120.544 75.5878 120.917 75.3793 121.245C75.1708 121.566 74.8821 121.819 74.5132 122.003C74.1523 122.188 73.7393 122.28 73.2742 122.28H71.2171ZM77.4484 122.28H76.486V116.109H77.4484V122.28ZM73.2742 121.414C73.6992 121.414 74.0481 121.294 74.3207 121.053C74.5934 120.812 74.7297 120.504 74.7297 120.127C74.7297 119.75 74.5934 119.441 74.3207 119.2C74.0481 118.96 73.6992 118.84 73.2742 118.84H72.1795V121.414H73.2742ZM83.0445 119.02C83.3652 119.14 83.6219 119.337 83.8143 119.609C84.0068 119.874 84.103 120.183 84.103 120.536C84.103 120.873 84.0108 121.173 83.8264 121.438C83.6419 121.703 83.3853 121.911 83.0565 122.063C82.7277 122.208 82.3548 122.28 81.9378 122.28H79.1349V116.109H81.8535C82.447 116.109 82.9322 116.265 83.3091 116.578C83.694 116.883 83.8865 117.272 83.8865 117.745C83.8865 118.034 83.8103 118.286 83.658 118.503C83.5136 118.719 83.3091 118.892 83.0445 119.02ZM80.0973 116.951V118.647H81.8535C82.1663 118.647 82.4189 118.571 82.6114 118.419C82.8119 118.258 82.9121 118.054 82.9121 117.805C82.9121 117.556 82.8119 117.352 82.6114 117.192C82.4189 117.031 82.1663 116.951 81.8535 116.951H80.0973ZM81.9378 121.426C82.2906 121.426 82.5753 121.338 82.7918 121.161C83.0164 120.977 83.1287 120.74 83.1287 120.452C83.1287 120.163 83.0164 119.93 82.7918 119.754C82.5753 119.577 82.2906 119.489 81.9378 119.489H80.0973V121.426H81.9378ZM87.824 115.989C88.5618 115.989 89.1432 116.237 89.5682 116.734C90.0013 117.224 90.2178 117.921 90.2178 118.828V122.28H89.5682L89.3036 121.306C88.8144 122.035 88.1327 122.4 87.2586 122.4C86.6331 122.4 86.1198 122.22 85.7188 121.859C85.3259 121.498 85.1294 121.033 85.1294 120.464C85.1294 119.878 85.3579 119.413 85.8151 119.068C86.2802 118.715 86.9458 118.539 87.8119 118.539H89.2555C89.2234 117.977 89.079 117.552 88.8224 117.264C88.5658 116.967 88.2209 116.819 87.7879 116.819C87.4751 116.819 87.1904 116.891 86.9338 117.035C86.6852 117.18 86.4927 117.38 86.3564 117.637L85.4542 117.492C85.6306 117.027 85.9313 116.662 86.3564 116.398C86.7894 116.125 87.2786 115.989 87.824 115.989ZM87.439 121.57C87.9763 121.57 88.4134 121.394 88.7502 121.041C89.087 120.688 89.2555 120.183 89.2555 119.525V119.369H87.824C86.6772 119.369 86.1038 119.726 86.1038 120.44C86.1038 120.784 86.2241 121.061 86.4646 121.27C86.7052 121.47 87.03 121.57 87.439 121.57ZM93.3373 122.28H91.8456V116.109H92.7839V121.258H92.9523L95.671 116.109H97.1626V122.28H96.2243V117.131H96.0679L93.3373 122.28ZM94.5041 115.231C94.0149 115.231 93.6059 115.102 93.2771 114.846C92.9563 114.589 92.7599 114.2 92.6877 113.679H93.5057C93.5538 113.944 93.6621 114.144 93.8305 114.28C93.9989 114.417 94.2234 114.485 94.5041 114.485C94.7848 114.485 95.0094 114.417 95.1778 114.28C95.3542 114.144 95.4625 113.944 95.5026 113.679H96.3206C96.2564 114.2 96.0599 114.589 95.7311 114.846C95.4023 115.102 94.9933 115.231 94.5041 115.231ZM101.349 122.28H100.387V116.987H98.2456V116.109H103.49V116.987H101.349V122.28ZM110.216 119.176C110.216 119.281 110.211 119.381 110.203 119.477H104.983C105.039 120.095 105.267 120.588 105.668 120.957C106.069 121.326 106.579 121.51 107.196 121.51C107.629 121.51 108.014 121.422 108.351 121.245C108.688 121.069 108.936 120.836 109.097 120.548L109.999 120.692C109.75 121.245 109.369 121.671 108.856 121.967C108.343 122.256 107.774 122.4 107.148 122.4C106.531 122.4 105.981 122.264 105.5 121.991C105.019 121.719 104.642 121.338 104.369 120.849C104.105 120.359 103.972 119.806 103.972 119.188C103.972 118.571 104.105 118.022 104.369 117.54C104.634 117.051 105.003 116.67 105.476 116.398C105.949 116.125 106.486 115.989 107.088 115.989C107.689 115.989 108.227 116.125 108.7 116.398C109.173 116.67 109.542 117.051 109.807 117.54C110.079 118.022 110.216 118.567 110.216 119.176ZM107.088 116.855C106.559 116.855 106.105 117.019 105.729 117.348C105.36 117.669 105.123 118.102 105.019 118.647H109.169C109.073 118.11 108.836 117.677 108.459 117.348C108.09 117.019 107.633 116.855 107.088 116.855ZM117.122 122.4C116.504 122.4 115.955 122.264 115.474 121.991C114.992 121.719 114.615 121.338 114.343 120.849C114.078 120.359 113.946 119.806 113.946 119.188C113.946 118.571 114.078 118.022 114.343 117.54C114.615 117.051 114.992 116.67 115.474 116.398C115.963 116.125 116.512 115.989 117.122 115.989C117.755 115.989 118.329 116.141 118.842 116.446C119.355 116.742 119.732 117.172 119.973 117.733L119.058 117.889C118.906 117.585 118.661 117.34 118.325 117.155C117.988 116.963 117.607 116.867 117.182 116.867C116.749 116.867 116.364 116.963 116.027 117.155C115.69 117.348 115.425 117.621 115.233 117.973C115.049 118.326 114.956 118.731 114.956 119.188C114.956 119.886 115.161 120.448 115.57 120.873C115.979 121.298 116.516 121.51 117.182 121.51C117.631 121.51 118.028 121.41 118.373 121.209C118.726 121.001 118.974 120.736 119.118 120.415L120.021 120.572C119.788 121.157 119.407 121.61 118.878 121.931C118.357 122.244 117.771 122.4 117.122 122.4ZM123.493 122.28H122.531V116.987H120.39V116.109H125.634V116.987H123.493V122.28ZM126.712 124.746V116.109H127.362L127.65 117.155C127.899 116.819 128.22 116.542 128.613 116.325C129.014 116.101 129.483 115.989 130.02 115.989C130.597 115.989 131.115 116.125 131.572 116.398C132.037 116.67 132.398 117.051 132.655 117.54C132.911 118.022 133.039 118.571 133.039 119.188C133.039 119.806 132.911 120.359 132.655 120.849C132.398 121.338 132.037 121.719 131.572 121.991C131.115 122.264 130.597 122.4 130.02 122.4C129.491 122.4 129.03 122.292 128.637 122.075C128.252 121.859 127.931 121.586 127.674 121.258V124.746H126.712ZM129.852 121.522C130.277 121.522 130.654 121.426 130.982 121.233C131.319 121.033 131.576 120.756 131.752 120.403C131.937 120.051 132.029 119.646 132.029 119.188C132.029 118.739 131.937 118.338 131.752 117.986C131.576 117.633 131.319 117.36 130.982 117.168C130.654 116.967 130.277 116.867 129.852 116.867C129.427 116.867 129.05 116.967 128.721 117.168C128.392 117.36 128.135 117.633 127.951 117.986C127.767 118.338 127.674 118.739 127.674 119.188C127.674 119.646 127.767 120.051 127.951 120.403C128.135 120.756 128.392 121.033 128.721 121.233C129.05 121.426 129.427 121.522 129.852 121.522ZM137.211 122.4C136.593 122.4 136.04 122.264 135.55 121.991C135.061 121.719 134.68 121.338 134.408 120.849C134.135 120.359 133.999 119.806 133.999 119.188C133.999 118.571 134.135 118.022 134.408 117.54C134.68 117.051 135.061 116.67 135.55 116.398C136.04 116.125 136.593 115.989 137.211 115.989C137.828 115.989 138.381 116.125 138.871 116.398C139.368 116.67 139.753 117.051 140.025 117.54C140.298 118.022 140.434 118.571 140.434 119.188C140.434 119.806 140.298 120.359 140.025 120.849C139.753 121.338 139.372 121.719 138.883 121.991C138.393 122.264 137.836 122.4 137.211 122.4ZM137.211 121.51C137.868 121.51 138.401 121.298 138.81 120.873C139.219 120.44 139.424 119.878 139.424 119.188C139.424 118.739 139.332 118.338 139.147 117.986C138.963 117.633 138.702 117.36 138.365 117.168C138.029 116.967 137.644 116.867 137.211 116.867C136.777 116.867 136.393 116.967 136.056 117.168C135.727 117.36 135.47 117.633 135.286 117.986C135.101 118.338 135.009 118.739 135.009 119.188C135.009 119.646 135.101 120.051 135.286 120.403C135.47 120.756 135.727 121.029 136.056 121.221C136.393 121.414 136.777 121.51 137.211 121.51ZM146.825 122.28H145.55L143.096 119.609H142.723V122.28H141.76V116.109H142.723V118.695H143.108L145.417 116.109H146.584L143.89 119.104L146.825 122.28ZM152.119 116.109H153.129L150.507 123.387C150.331 123.868 150.098 124.213 149.809 124.421C149.529 124.638 149.152 124.746 148.678 124.746H147.788L147.704 123.868H148.727C148.967 123.868 149.152 123.816 149.28 123.711C149.416 123.615 149.529 123.443 149.617 123.194L149.809 122.641L147.067 116.109H148.101L150.194 121.197H150.351L152.119 116.109ZM158.289 122.28H156.797V116.109H157.735V121.258H157.904L160.623 116.109H162.114V122.28H161.176V117.131H161.019L158.289 122.28ZM164.725 116.109H168.875V122.28H167.913V116.987H165.615L165.411 120.235C165.37 120.925 165.194 121.45 164.881 121.811C164.577 122.164 164.16 122.34 163.63 122.34C163.486 122.34 163.329 122.328 163.161 122.304L163.077 121.378C163.181 121.386 163.313 121.39 163.474 121.39C163.827 121.39 164.071 121.31 164.208 121.149C164.344 120.989 164.428 120.692 164.46 120.259L164.725 116.109ZM172.045 122.28H170.553V116.109H171.492V121.258H171.66L174.379 116.109H175.87V122.28H174.932V117.131H174.776L172.045 122.28ZM183.26 122.4C182.642 122.4 182.093 122.264 181.612 121.991C181.13 121.719 180.754 121.338 180.481 120.849C180.216 120.359 180.084 119.806 180.084 119.188C180.084 118.571 180.216 118.022 180.481 117.54C180.754 117.051 181.13 116.67 181.612 116.398C182.101 116.125 182.65 115.989 183.26 115.989C183.893 115.989 184.467 116.141 184.98 116.446C185.493 116.742 185.87 117.172 186.111 117.733L185.196 117.889C185.044 117.585 184.799 117.34 184.463 117.155C184.126 116.963 183.745 116.867 183.32 116.867C182.887 116.867 182.502 116.963 182.165 117.155C181.828 117.348 181.563 117.621 181.371 117.973C181.187 118.326 181.094 118.731 181.094 119.188C181.094 119.886 181.299 120.448 181.708 120.873C182.117 121.298 182.654 121.51 183.32 121.51C183.769 121.51 184.166 121.41 184.511 121.209C184.864 121.001 185.112 120.736 185.256 120.415L186.159 120.572C185.926 121.157 185.545 121.61 185.016 121.931C184.495 122.244 183.909 122.4 183.26 122.4ZM189.631 122.28H188.669V116.987H186.528V116.109H191.772V116.987H189.631V122.28ZM195.466 122.4C194.849 122.4 194.295 122.264 193.806 121.991C193.317 121.719 192.936 121.338 192.663 120.849C192.391 120.359 192.254 119.806 192.254 119.188C192.254 118.571 192.391 118.022 192.663 117.54C192.936 117.051 193.317 116.67 193.806 116.398C194.295 116.125 194.849 115.989 195.466 115.989C196.084 115.989 196.637 116.125 197.126 116.398C197.623 116.67 198.008 117.051 198.281 117.54C198.554 118.022 198.69 118.571 198.69 119.188C198.69 119.806 198.554 120.359 198.281 120.849C198.008 121.338 197.627 121.719 197.138 121.991C196.649 122.264 196.092 122.4 195.466 122.4ZM195.466 121.51C196.124 121.51 196.657 121.298 197.066 120.873C197.475 120.44 197.679 119.878 197.679 119.188C197.679 118.739 197.587 118.338 197.403 117.986C197.218 117.633 196.958 117.36 196.621 117.168C196.284 116.967 195.899 116.867 195.466 116.867C195.033 116.867 194.648 116.967 194.311 117.168C193.982 117.36 193.726 117.633 193.541 117.986C193.357 118.338 193.265 118.739 193.265 119.188C193.265 119.646 193.357 120.051 193.541 120.403C193.726 120.756 193.982 121.029 194.311 121.221C194.648 121.414 195.033 121.51 195.466 121.51ZM200.707 116.109H204.857V122.28H203.895V116.987H201.597L201.393 120.235C201.353 120.925 201.176 121.45 200.864 121.811C200.559 122.164 200.142 122.34 199.613 122.34C199.468 122.34 199.312 122.328 199.143 122.304L199.059 121.378C199.163 121.386 199.296 121.39 199.456 121.39C199.809 121.39 200.054 121.31 200.19 121.149C200.326 120.989 200.411 120.692 200.443 120.259L200.707 116.109ZM209.471 116.662C210.008 116.662 210.489 116.783 210.914 117.023C211.34 117.264 211.668 117.601 211.901 118.034C212.141 118.467 212.262 118.96 212.262 119.513C212.262 120.067 212.133 120.564 211.877 121.005C211.62 121.446 211.263 121.791 210.806 122.039C210.349 122.28 209.828 122.4 209.242 122.4C208.256 122.4 207.49 122.067 206.945 121.402C206.696 121.089 206.516 120.724 206.403 120.307C206.291 119.89 206.235 119.357 206.235 118.707C206.235 117.408 206.488 116.406 206.993 115.7C207.506 114.994 208.376 114.585 209.603 114.473C209.924 114.441 210.173 114.397 210.349 114.341C210.526 114.284 210.654 114.2 210.734 114.088C210.822 113.976 210.886 113.823 210.927 113.631L211.805 113.715C211.773 114.132 211.66 114.457 211.468 114.689C211.275 114.922 211.031 115.086 210.734 115.183C210.437 115.279 210.068 115.347 209.627 115.387C208.817 115.459 208.228 115.692 207.859 116.085C207.498 116.47 207.29 117.011 207.233 117.709C207.49 117.372 207.803 117.115 208.172 116.939C208.549 116.755 208.982 116.662 209.471 116.662ZM209.266 121.522C209.86 121.522 210.341 121.338 210.71 120.969C211.079 120.592 211.263 120.111 211.263 119.525C211.263 118.94 211.079 118.463 210.71 118.094C210.341 117.725 209.86 117.54 209.266 117.54C208.665 117.54 208.176 117.725 207.799 118.094C207.43 118.455 207.246 118.932 207.246 119.525C207.246 120.119 207.43 120.6 207.799 120.969C208.176 121.338 208.665 121.522 209.266 121.522ZM219.408 119.176C219.408 119.281 219.404 119.381 219.396 119.477H214.175C214.231 120.095 214.46 120.588 214.861 120.957C215.262 121.326 215.771 121.51 216.389 121.51C216.822 121.51 217.206 121.422 217.543 121.245C217.88 121.069 218.129 120.836 218.289 120.548L219.191 120.692C218.943 121.245 218.562 121.671 218.049 121.967C217.535 122.256 216.966 122.4 216.34 122.4C215.723 122.4 215.174 122.264 214.692 121.991C214.211 121.719 213.834 121.338 213.562 120.849C213.297 120.359 213.165 119.806 213.165 119.188C213.165 118.571 213.297 118.022 213.562 117.54C213.826 117.051 214.195 116.67 214.668 116.398C215.141 116.125 215.679 115.989 216.28 115.989C216.882 115.989 217.419 116.125 217.892 116.398C218.365 116.67 218.734 117.051 218.999 117.54C219.272 118.022 219.408 118.567 219.408 119.176ZM216.28 116.855C215.751 116.855 215.298 117.019 214.921 117.348C214.552 117.669 214.315 118.102 214.211 118.647H218.361C218.265 118.11 218.029 117.677 217.652 117.348C217.283 117.019 216.826 116.855 216.28 116.855ZM226.612 124.108H225.65V122.28H220.609V116.109H221.572V121.39H224.603V116.109H225.565V121.39H226.612V124.108ZM12.5737 136.28H11.082V130.109H12.0203V135.258H12.1887L14.9074 130.109H16.399V136.28H15.4607V131.131H15.3044L12.5737 136.28ZM21.9357 136.28H20.9734V130.109H26.0377V136.28H25.0754V130.987H21.9357V136.28ZM30.5674 136.4C29.9499 136.4 29.3965 136.264 28.9073 135.991C28.4181 135.719 28.0372 135.338 27.7645 134.849C27.4919 134.359 27.3555 133.806 27.3555 133.188C27.3555 132.571 27.4919 132.022 27.7645 131.54C28.0372 131.051 28.4181 130.67 28.9073 130.398C29.3965 130.125 29.9499 129.989 30.5674 129.989C31.1849 129.989 31.7382 130.125 32.2274 130.398C32.7246 130.67 33.1096 131.051 33.3822 131.54C33.6549 132.022 33.7912 132.571 33.7912 133.188C33.7912 133.806 33.6549 134.359 33.3822 134.849C33.1096 135.338 32.7286 135.719 32.2394 135.991C31.7503 136.264 31.1929 136.4 30.5674 136.4ZM30.5674 135.51C31.225 135.51 31.7583 135.298 32.1673 134.873C32.5763 134.44 32.7808 133.878 32.7808 133.188C32.7808 132.739 32.6885 132.338 32.5041 131.986C32.3196 131.633 32.059 131.36 31.7222 131.168C31.3854 130.967 31.0004 130.867 30.5674 130.867C30.1343 130.867 29.7494 130.967 29.4125 131.168C29.0837 131.36 28.8271 131.633 28.6427 131.986C28.4582 132.338 28.366 132.739 28.366 133.188C28.366 133.646 28.4582 134.051 28.6427 134.403C28.8271 134.756 29.0837 135.029 29.4125 135.221C29.7494 135.414 30.1343 135.51 30.5674 135.51ZM35.8086 130.109H39.9587V136.28H38.9964V130.987H36.6988L36.4943 134.235C36.4542 134.925 36.2777 135.45 35.965 135.811C35.6602 136.164 35.2432 136.34 34.7139 136.34C34.5696 136.34 34.4132 136.328 34.2448 136.304L34.1606 135.378C34.2648 135.386 34.3972 135.39 34.5575 135.39C34.9104 135.39 35.155 135.31 35.2913 135.149C35.4277 134.989 35.5119 134.692 35.544 134.259L35.8086 130.109ZM46.0278 130.109H47.0383L44.4159 137.387C44.2395 137.868 44.0069 138.213 43.7182 138.421C43.4375 138.638 43.0606 138.746 42.5874 138.746H41.6973L41.6131 137.868H42.6355C42.8761 137.868 43.0606 137.816 43.1889 137.711C43.3252 137.615 43.4375 137.443 43.5257 137.194L43.7182 136.641L40.9755 130.109H42.01L44.1031 135.197H44.2595L46.0278 130.109ZM51.7235 133.934C51.5069 134.022 51.2583 134.091 50.9776 134.139C50.705 134.187 50.4403 134.211 50.1837 134.211C49.47 134.211 48.9166 134.014 48.5236 133.622C48.1307 133.221 47.9342 132.655 47.9342 131.925V130.109H48.8966V131.925C48.8966 132.864 49.3577 133.333 50.2799 133.333C50.5205 133.333 50.7691 133.309 51.0258 133.261C51.2824 133.213 51.5149 133.14 51.7235 133.044V130.109H52.6858V136.28H51.7235V133.934ZM56.705 129.989C57.4428 129.989 58.0242 130.237 58.4493 130.734C58.8823 131.224 59.0989 131.921 59.0989 132.828V136.28H58.4493L58.1846 135.306C57.6954 136.035 57.0138 136.4 56.1396 136.4C55.5141 136.4 55.0009 136.22 54.5999 135.859C54.2069 135.498 54.0104 135.033 54.0104 134.464C54.0104 133.878 54.239 133.413 54.6961 133.068C55.1613 132.715 55.8269 132.539 56.693 132.539H58.1365C58.1044 131.977 57.9601 131.552 57.7035 131.264C57.4468 130.967 57.102 130.819 56.6689 130.819C56.3562 130.819 56.0715 130.891 55.8149 131.035C55.5662 131.18 55.3738 131.38 55.2374 131.637L54.3352 131.492C54.5117 131.027 54.8124 130.662 55.2374 130.398C55.6705 130.125 56.1597 129.989 56.705 129.989ZM56.3201 135.57C56.8574 135.57 57.2945 135.394 57.6313 135.041C57.9681 134.688 58.1365 134.183 58.1365 133.525V133.369H56.705C55.5582 133.369 54.9848 133.726 54.9848 134.44C54.9848 134.784 55.1051 135.061 55.3457 135.27C55.5863 135.47 55.9111 135.57 56.3201 135.57ZM62.2183 136.28H60.7267V130.109H61.665V135.258H61.8334L64.552 130.109H66.0437V136.28H65.1054V131.131H64.949L62.2183 136.28ZM63.3852 129.231C62.896 129.231 62.487 129.102 62.1582 128.846C61.8374 128.589 61.6409 128.2 61.5687 127.679H62.3867C62.4349 127.944 62.5431 128.144 62.7115 128.28C62.8799 128.417 63.1045 128.485 63.3852 128.485C63.6659 128.485 63.8904 128.417 64.0588 128.28C64.2353 128.144 64.3435 127.944 64.3836 127.679H65.2016C65.1375 128.2 64.941 128.589 64.6122 128.846C64.2834 129.102 63.8744 129.231 63.3852 129.231ZM70.2303 136.28H69.2679V130.987H67.1267V130.109H72.3715V130.987H70.2303V136.28ZM79.0966 133.176C79.0966 133.281 79.0926 133.381 79.0845 133.477H73.8638C73.9199 134.095 74.1485 134.588 74.5495 134.957C74.9504 135.326 75.4597 135.51 76.0772 135.51C76.5102 135.51 76.8952 135.422 77.232 135.245C77.5688 135.069 77.8174 134.836 77.9778 134.548L78.88 134.692C78.6314 135.245 78.2505 135.671 77.7372 135.967C77.224 136.256 76.6546 136.4 76.0291 136.4C75.4116 136.4 74.8622 136.264 74.3811 135.991C73.8999 135.719 73.523 135.338 73.2503 134.849C72.9856 134.359 72.8533 133.806 72.8533 133.188C72.8533 132.571 72.9856 132.022 73.2503 131.54C73.5149 131.051 73.8838 130.67 74.357 130.398C74.8301 130.125 75.3675 129.989 75.9689 129.989C76.5704 129.989 77.1077 130.125 77.5809 130.398C78.054 130.67 78.4229 131.051 78.6876 131.54C78.9602 132.022 79.0966 132.567 79.0966 133.176ZM75.9689 130.855C75.4396 130.855 74.9865 131.019 74.6096 131.348C74.2407 131.669 74.0041 132.102 73.8999 132.647H78.05C77.9538 132.11 77.7172 131.677 77.3403 131.348C76.9714 131.019 76.5143 130.855 75.9689 130.855ZM82.5262 138.108V135.39H82.6344C82.9793 135.39 83.2399 135.237 83.4163 134.933C83.6008 134.628 83.7251 134.115 83.7892 133.393L84.0779 130.109H88.2642V135.39H89.2987V138.108H88.3363V136.28H83.4885V138.108H82.5262ZM87.3018 135.39V130.987H84.9681L84.7516 133.417C84.7035 133.962 84.6313 134.391 84.5351 134.704C84.4468 135.009 84.3225 135.237 84.1622 135.39H87.3018ZM93.1107 136.4C92.4932 136.4 91.9398 136.264 91.4506 135.991C90.9614 135.719 90.5805 135.338 90.3078 134.849C90.0352 134.359 89.8988 133.806 89.8988 133.188C89.8988 132.571 90.0352 132.022 90.3078 131.54C90.5805 131.051 90.9614 130.67 91.4506 130.398C91.9398 130.125 92.4932 129.989 93.1107 129.989C93.7282 129.989 94.2815 130.125 94.7707 130.398C95.268 130.67 95.6529 131.051 95.9256 131.54C96.1982 132.022 96.3346 132.571 96.3346 133.188C96.3346 133.806 96.1982 134.359 95.9256 134.849C95.6529 135.338 95.272 135.719 94.7828 135.991C94.2936 136.264 93.7362 136.4 93.1107 136.4ZM93.1107 135.51C93.7683 135.51 94.3016 135.298 94.7106 134.873C95.1196 134.44 95.3241 133.878 95.3241 133.188C95.3241 132.739 95.2319 132.338 95.0474 131.986C94.863 131.633 94.6023 131.36 94.2655 131.168C93.9287 130.967 93.5437 130.867 93.1107 130.867C92.6776 130.867 92.2927 130.967 91.9559 131.168C91.6271 131.36 91.3704 131.633 91.186 131.986C91.0015 132.338 90.9093 132.739 90.9093 133.188C90.9093 133.646 91.0015 134.051 91.186 134.403C91.3704 134.756 91.6271 135.029 91.9559 135.221C92.2927 135.414 92.6776 135.51 93.1107 135.51ZM98.623 136.28H97.6606V130.109H102.725V136.28H101.763V130.987H98.623V136.28ZM107.255 136.4C106.637 136.4 106.084 136.264 105.595 135.991C105.105 135.719 104.724 135.338 104.452 134.849C104.179 134.359 104.043 133.806 104.043 133.188C104.043 132.571 104.179 132.022 104.452 131.54C104.724 131.051 105.105 130.67 105.595 130.398C106.084 130.125 106.637 129.989 107.255 129.989C107.872 129.989 108.425 130.125 108.915 130.398C109.412 130.67 109.797 131.051 110.069 131.54C110.342 132.022 110.478 132.571 110.478 133.188C110.478 133.806 110.342 134.359 110.069 134.849C109.797 135.338 109.416 135.719 108.927 135.991C108.437 136.264 107.88 136.4 107.255 136.4ZM107.255 135.51C107.912 135.51 108.446 135.298 108.854 134.873C109.263 134.44 109.468 133.878 109.468 133.188C109.468 132.739 109.376 132.338 109.191 131.986C109.007 131.633 108.746 131.36 108.409 131.168C108.073 130.967 107.688 130.867 107.255 130.867C106.822 130.867 106.437 130.967 106.1 131.168C105.771 131.36 105.514 131.633 105.33 131.986C105.145 132.338 105.053 132.739 105.053 133.188C105.053 133.646 105.145 134.051 105.33 134.403C105.514 134.756 105.771 135.029 106.1 135.221C106.437 135.414 106.822 135.51 107.255 135.51ZM112.496 130.109H116.646V136.28H115.684V130.987H113.386L113.181 134.235C113.141 134.925 112.965 135.45 112.652 135.811C112.347 136.164 111.93 136.34 111.401 136.34C111.257 136.34 111.1 136.328 110.932 136.304L110.848 135.378C110.952 135.386 111.084 135.39 111.245 135.39C111.598 135.39 111.842 135.31 111.979 135.149C112.115 134.989 112.199 134.692 112.231 134.259L112.496 130.109ZM122.486 132.719V130.109H123.449V136.28H122.486V133.597H119.287V136.28H118.324V130.109H119.287V132.719H122.486ZM126.629 136.28H125.138V130.109H126.076V135.258H126.245L128.963 130.109H130.455V136.28H129.517V131.131H129.36L126.629 136.28ZM134.641 136.28H133.679V130.987H131.538V130.109H136.783V130.987H134.641V136.28ZM143.508 133.176C143.508 133.281 143.504 133.381 143.496 133.477H138.275C138.331 134.095 138.56 134.588 138.961 134.957C139.362 135.326 139.871 135.51 140.488 135.51C140.921 135.51 141.306 135.422 141.643 135.245C141.98 135.069 142.229 134.836 142.389 134.548L143.291 134.692C143.043 135.245 142.662 135.671 142.148 135.967C141.635 136.256 141.066 136.4 140.44 136.4C139.823 136.4 139.273 136.264 138.792 135.991C138.311 135.719 137.934 135.338 137.661 134.849C137.397 134.359 137.264 133.806 137.264 133.188C137.264 132.571 137.397 132.022 137.661 131.54C137.926 131.051 138.295 130.67 138.768 130.398C139.241 130.125 139.779 129.989 140.38 129.989C140.982 129.989 141.519 130.125 141.992 130.398C142.465 130.67 142.834 131.051 143.099 131.54C143.371 132.022 143.508 132.567 143.508 133.176ZM140.38 130.855C139.851 130.855 139.398 131.019 139.021 131.348C138.652 131.669 138.415 132.102 138.311 132.647H142.461C142.365 132.11 142.128 131.677 141.751 131.348C141.383 131.019 140.925 130.855 140.38 130.855ZM145.4 130.109H149.55V136.28H148.588V130.987H146.291L146.086 134.235C146.046 134.925 145.87 135.45 145.557 135.811C145.252 136.164 144.835 136.34 144.306 136.34C144.161 136.34 144.005 136.328 143.837 136.304L143.752 135.378C143.857 135.386 143.989 135.39 144.149 135.39C144.502 135.39 144.747 135.31 144.883 135.149C145.019 134.989 145.104 134.692 145.136 134.259L145.4 130.109ZM151.229 136.28V130.109H152.191V131.973H153.466C153.931 131.973 154.348 132.066 154.717 132.25C155.086 132.435 155.371 132.691 155.571 133.02C155.78 133.341 155.884 133.71 155.884 134.127C155.884 134.544 155.78 134.917 155.571 135.245C155.363 135.566 155.074 135.819 154.705 136.003C154.344 136.188 153.931 136.28 153.466 136.28H151.229ZM153.466 135.414C153.891 135.414 154.236 135.294 154.501 135.053C154.774 134.812 154.91 134.504 154.91 134.127C154.91 133.75 154.774 133.441 154.501 133.2C154.236 132.96 153.891 132.84 153.466 132.84H152.191V135.414H153.466ZM161.253 132.719V130.109H162.215V136.28H161.253V133.597H158.053V136.28H157.091V130.109H158.053V132.719H161.253ZM163.904 136.28V130.109H164.867V131.973H165.961C166.427 131.973 166.844 132.066 167.212 132.25C167.581 132.435 167.866 132.691 168.067 133.02C168.275 133.341 168.379 133.71 168.379 134.127C168.379 134.544 168.275 134.917 168.067 135.245C167.858 135.566 167.569 135.819 167.2 136.003C166.84 136.188 166.427 136.28 165.961 136.28H163.904ZM170.136 136.28H169.173V130.109H170.136V136.28ZM165.961 135.414C166.386 135.414 166.735 135.294 167.008 135.053C167.281 134.812 167.417 134.504 167.417 134.127C167.417 133.75 167.281 133.441 167.008 133.2C166.735 132.96 166.386 132.84 165.961 132.84H164.867V135.414H165.961ZM177.704 133.176C177.704 133.281 177.7 133.381 177.692 133.477H172.472C172.528 134.095 172.756 134.588 173.157 134.957C173.558 135.326 174.068 135.51 174.685 135.51C175.118 135.51 175.503 135.422 175.84 135.245C176.177 135.069 176.425 134.836 176.586 134.548L177.488 134.692C177.239 135.245 176.858 135.671 176.345 135.967C175.832 136.256 175.263 136.4 174.637 136.4C174.019 136.4 173.47 136.264 172.989 135.991C172.508 135.719 172.131 135.338 171.858 134.849C171.594 134.359 171.461 133.806 171.461 133.188C171.461 132.571 171.594 132.022 171.858 131.54C172.123 131.051 172.492 130.67 172.965 130.398C173.438 130.125 173.975 129.989 174.577 129.989C175.178 129.989 175.716 130.125 176.189 130.398C176.662 130.67 177.031 131.051 177.295 131.54C177.568 132.022 177.704 132.567 177.704 133.176ZM174.577 130.855C174.048 130.855 173.594 131.019 173.218 131.348C172.849 131.669 172.612 132.102 172.508 132.647H176.658C176.562 132.11 176.325 131.677 175.948 131.348C175.579 131.019 175.122 130.855 174.577 130.855ZM184.731 130.662C185.268 130.662 185.749 130.783 186.174 131.023C186.599 131.264 186.928 131.601 187.161 132.034C187.401 132.467 187.522 132.96 187.522 133.513C187.522 134.067 187.393 134.564 187.137 135.005C186.88 135.446 186.523 135.791 186.066 136.039C185.609 136.28 185.088 136.4 184.502 136.4C183.516 136.4 182.75 136.067 182.205 135.402C181.956 135.089 181.776 134.724 181.663 134.307C181.551 133.89 181.495 133.357 181.495 132.707C181.495 131.408 181.748 130.406 182.253 129.7C182.766 128.994 183.636 128.585 184.863 128.473C185.184 128.441 185.433 128.397 185.609 128.341C185.785 128.284 185.914 128.2 185.994 128.088C186.082 127.976 186.146 127.823 186.186 127.631L187.065 127.715C187.032 128.132 186.92 128.457 186.728 128.689C186.535 128.922 186.291 129.086 185.994 129.183C185.697 129.279 185.328 129.347 184.887 129.387C184.077 129.459 183.488 129.692 183.119 130.085C182.758 130.47 182.55 131.011 182.493 131.709C182.75 131.372 183.063 131.115 183.432 130.939C183.809 130.755 184.242 130.662 184.731 130.662ZM184.526 135.522C185.12 135.522 185.601 135.338 185.97 134.969C186.339 134.592 186.523 134.111 186.523 133.525C186.523 132.94 186.339 132.463 185.97 132.094C185.601 131.725 185.12 131.54 184.526 131.54C183.925 131.54 183.436 131.725 183.059 132.094C182.69 132.455 182.505 132.932 182.505 133.525C182.505 134.119 182.69 134.6 183.059 134.969C183.436 135.338 183.925 135.522 184.526 135.522ZM191.119 129.989C191.857 129.989 192.438 130.237 192.863 130.734C193.296 131.224 193.513 131.921 193.513 132.828V136.28H192.863L192.599 135.306C192.11 136.035 191.428 136.4 190.554 136.4C189.928 136.4 189.415 136.22 189.014 135.859C188.621 135.498 188.425 135.033 188.425 134.464C188.425 133.878 188.653 133.413 189.11 133.068C189.575 132.715 190.241 132.539 191.107 132.539H192.551C192.519 131.977 192.374 131.552 192.118 131.264C191.861 130.967 191.516 130.819 191.083 130.819C190.77 130.819 190.486 130.891 190.229 131.035C189.98 131.18 189.788 131.38 189.652 131.637L188.749 131.492C188.926 131.027 189.226 130.662 189.652 130.398C190.085 130.125 190.574 129.989 191.119 129.989ZM190.734 135.57C191.271 135.57 191.709 135.394 192.045 135.041C192.382 134.688 192.551 134.183 192.551 133.525V133.369H191.119C189.972 133.369 189.399 133.726 189.399 134.44C189.399 134.784 189.519 135.061 189.76 135.27C190 135.47 190.325 135.57 190.734 135.57ZM195.95 130.109H200.1V136.28H199.137V130.987H196.84L196.635 134.235C196.595 134.925 196.419 135.45 196.106 135.811C195.801 136.164 195.384 136.34 194.855 136.34C194.711 136.34 194.554 136.328 194.386 136.304L194.302 135.378C194.406 135.386 194.538 135.39 194.699 135.39C195.051 135.39 195.296 135.31 195.432 135.149C195.569 134.989 195.653 134.692 195.685 134.259L195.95 130.109ZM202.704 130.109H206.854V136.28H205.892V130.987H203.595L203.39 134.235C203.35 134.925 203.173 135.45 202.861 135.811C202.556 136.164 202.139 136.34 201.61 136.34C201.465 136.34 201.309 136.328 201.141 136.304L201.056 135.378C201.161 135.386 201.293 135.39 201.453 135.39C201.806 135.39 202.051 135.31 202.187 135.149C202.323 134.989 202.408 134.692 202.44 134.259L202.704 130.109ZM208.533 136.28V130.109H209.495V131.973H210.59C211.055 131.973 211.472 132.066 211.841 132.25C212.21 132.435 212.495 132.691 212.695 133.02C212.904 133.341 213.008 133.71 213.008 134.127C213.008 134.544 212.904 134.917 212.695 135.245C212.487 135.566 212.198 135.819 211.829 136.003C211.468 136.188 211.055 136.28 210.59 136.28H208.533ZM214.764 136.28H213.802V130.109H214.764V136.28ZM210.59 135.414C211.015 135.414 211.364 135.294 211.636 135.053C211.909 134.812 212.045 134.504 212.045 134.127C212.045 133.75 211.909 133.441 211.636 133.2C211.364 132.96 211.015 132.84 210.59 132.84H209.495V135.414H210.59ZM14.9916 147.02C15.3124 147.14 15.569 147.337 15.7615 147.609C15.9539 147.874 16.0502 148.183 16.0502 148.536C16.0502 148.873 15.958 149.173 15.7735 149.438C15.589 149.703 15.3324 149.911 15.0036 150.063C14.6748 150.208 14.3019 150.28 13.8849 150.28H11.082V144.109H13.8007C14.3941 144.109 14.8793 144.265 15.2562 144.578C15.6412 144.883 15.8336 145.272 15.8336 145.745C15.8336 146.034 15.7575 146.286 15.6051 146.503C15.4607 146.719 15.2562 146.892 14.9916 147.02ZM12.0444 144.951V146.647H13.8007C14.1134 146.647 14.3661 146.571 14.5585 146.419C14.759 146.258 14.8593 146.054 14.8593 145.805C14.8593 145.556 14.759 145.352 14.5585 145.192C14.3661 145.031 14.1134 144.951 13.8007 144.951H12.0444ZM13.8849 149.426C14.2378 149.426 14.5224 149.338 14.739 149.161C14.9635 148.977 15.0758 148.74 15.0758 148.452C15.0758 148.163 14.9635 147.93 14.739 147.754C14.5224 147.577 14.2378 147.489 13.8849 147.489H12.0444V149.426H13.8849ZM22.8174 149.775H21.7107L19.7258 147.14L21.7107 144.518H22.8174L20.8325 147.14L22.8174 149.775ZM25.2593 149.775H24.1286L22.1317 147.14L24.1286 144.518H25.2473L23.2504 147.14L25.2593 149.775ZM31.0684 145.949C31.5335 146.086 31.8984 146.334 32.163 146.695C32.4357 147.056 32.572 147.481 32.572 147.97C32.572 148.411 32.4558 148.808 32.2232 149.161C31.9906 149.514 31.6658 149.791 31.2488 149.991C30.8398 150.184 30.3707 150.28 29.8414 150.28H26.5092V141.799H29.6369C30.1662 141.799 30.6353 141.896 31.0443 142.088C31.4613 142.28 31.7821 142.553 32.0067 142.906C32.2392 143.251 32.3555 143.648 32.3555 144.097C32.3555 144.538 32.2392 144.923 32.0067 145.252C31.7741 145.581 31.4613 145.813 31.0684 145.949ZM27.5317 142.726V145.564H29.6369C30.1261 145.564 30.523 145.436 30.8278 145.18C31.1405 144.915 31.2969 144.57 31.2969 144.145C31.2969 143.72 31.1405 143.379 30.8278 143.123C30.523 142.858 30.1261 142.726 29.6369 142.726H27.5317ZM29.8414 149.354C30.3386 149.354 30.7396 149.221 31.0443 148.957C31.3571 148.684 31.5135 148.335 31.5135 147.91C31.5135 147.485 31.3571 147.14 31.0443 146.876C30.7396 146.603 30.3386 146.467 29.8414 146.467H27.5317V149.354H29.8414ZM39.8954 147.176C39.8954 147.281 39.8914 147.381 39.8834 147.477H34.6626C34.7188 148.095 34.9473 148.588 35.3483 148.957C35.7493 149.326 36.2585 149.51 36.876 149.51C37.3091 149.51 37.694 149.422 38.0308 149.245C38.3677 149.069 38.6163 148.836 38.7767 148.548L39.6789 148.692C39.4303 149.245 39.0493 149.671 38.5361 149.967C38.0228 150.256 37.4534 150.4 36.8279 150.4C36.2104 150.4 35.6611 150.264 35.1799 149.991C34.6987 149.719 34.3218 149.338 34.0491 148.849C33.7845 148.359 33.6521 147.806 33.6521 147.188C33.6521 146.571 33.7845 146.022 34.0491 145.54C34.3138 145.051 34.6827 144.67 35.1558 144.398C35.629 144.125 36.1663 143.989 36.7678 143.989C37.3692 143.989 37.9065 144.125 38.3797 144.398C38.8528 144.67 39.2217 145.051 39.4864 145.54C39.7591 146.022 39.8954 146.567 39.8954 147.176ZM36.7678 144.855C36.2385 144.855 35.7854 145.019 35.4084 145.348C35.0395 145.669 34.803 146.102 34.6987 146.647H38.8488C38.7526 146.11 38.516 145.677 38.1391 145.348C37.7702 145.019 37.3131 144.855 36.7678 144.855ZM44.3567 147.116C44.6614 147.221 44.914 147.401 45.1145 147.658C45.315 147.906 45.4153 148.211 45.4153 148.572C45.4153 148.909 45.319 149.217 45.1266 149.498C44.9341 149.779 44.6614 149.999 44.3086 150.16C43.9637 150.32 43.5627 150.4 43.1056 150.4C42.4801 150.4 41.9348 150.252 41.4696 149.955C41.0045 149.658 40.6998 149.253 40.5554 148.74L41.4456 148.596C41.5819 148.917 41.7904 149.157 42.0711 149.318C42.3598 149.47 42.7006 149.546 43.0936 149.546C43.5267 149.546 43.8595 149.458 44.092 149.282C44.3246 149.097 44.4409 148.844 44.4409 148.524C44.4409 148.235 44.3326 148.006 44.1161 147.838C43.8996 147.662 43.5587 147.573 43.0936 147.573H42.2395V146.707H43.0936C43.4946 146.707 43.8033 146.627 44.0199 146.467C44.2364 146.306 44.3447 146.09 44.3447 145.817C44.3447 145.52 44.2244 145.284 43.9838 145.107C43.7432 144.931 43.4465 144.843 43.0936 144.843C42.7648 144.843 42.4681 144.923 42.2034 145.083C41.9468 145.236 41.7543 145.452 41.626 145.733L40.7238 145.577C40.9083 145.071 41.217 144.682 41.6501 144.41C42.0831 144.129 42.5763 143.989 43.1297 143.989C43.5387 143.989 43.9076 144.065 44.2364 144.217C44.5732 144.37 44.8379 144.578 45.0303 144.843C45.2228 145.107 45.319 145.408 45.319 145.745C45.319 146.074 45.2308 146.362 45.0544 146.611C44.878 146.852 44.6454 147.02 44.3567 147.116ZM45.9564 152.108V149.39H46.0647C46.4095 149.39 46.6701 149.237 46.8466 148.933C47.031 148.628 47.1553 148.115 47.2195 147.393L47.5082 144.109H51.6944V149.39H52.7289V152.108H51.7666V150.28H46.9188V152.108H45.9564ZM50.7321 149.39V144.987H48.3984L48.1818 147.417C48.1337 147.962 48.0615 148.391 47.9653 148.704C47.8771 149.009 47.7528 149.237 47.5924 149.39H50.7321ZM59.5723 147.176C59.5723 147.281 59.5683 147.381 59.5603 147.477H54.3396C54.3957 148.095 54.6243 148.588 55.0252 148.957C55.4262 149.326 55.9355 149.51 56.553 149.51C56.986 149.51 57.371 149.422 57.7078 149.245C58.0446 149.069 58.2932 148.836 58.4536 148.548L59.3558 148.692C59.1072 149.245 58.7263 149.671 58.213 149.967C57.6998 150.256 57.1304 150.4 56.5048 150.4C55.8873 150.4 55.338 150.264 54.8568 149.991C54.3756 149.719 53.9987 149.338 53.7261 148.849C53.4614 148.359 53.3291 147.806 53.3291 147.188C53.3291 146.571 53.4614 146.022 53.7261 145.54C53.9907 145.051 54.3596 144.67 54.8328 144.398C55.3059 144.125 55.8432 143.989 56.4447 143.989C57.0462 143.989 57.5835 144.125 58.0566 144.398C58.5298 144.67 58.8987 145.051 59.1633 145.54C59.436 146.022 59.5723 146.567 59.5723 147.176ZM56.4447 144.855C55.9154 144.855 55.4623 145.019 55.0854 145.348C54.7165 145.669 54.4799 146.102 54.3756 146.647H58.5258C58.4295 146.11 58.193 145.677 57.816 145.348C57.4471 145.019 56.99 144.855 56.4447 144.855ZM65.838 150.28H64.5629L62.1089 147.609H61.736V150.28H60.7737V144.109H61.736V146.695H62.121L64.4306 144.109H65.5975L62.9029 147.104L65.838 150.28ZM69.3574 150.4C68.7399 150.4 68.1865 150.264 67.6973 149.991C67.2081 149.719 66.8272 149.338 66.5545 148.849C66.2819 148.359 66.1455 147.806 66.1455 147.188C66.1455 146.571 66.2819 146.022 66.5545 145.54C66.8272 145.051 67.2081 144.67 67.6973 144.398C68.1865 144.125 68.7399 143.989 69.3574 143.989C69.9749 143.989 70.5282 144.125 71.0174 144.398C71.5146 144.67 71.8996 145.051 72.1723 145.54C72.4449 146.022 72.5813 146.571 72.5813 147.188C72.5813 147.806 72.4449 148.359 72.1723 148.849C71.8996 149.338 71.5187 149.719 71.0295 149.991C70.5403 150.264 69.9829 150.4 69.3574 150.4ZM69.3574 149.51C70.015 149.51 70.5483 149.298 70.9573 148.873C71.3663 148.44 71.5708 147.878 71.5708 147.188C71.5708 146.739 71.4786 146.338 71.2941 145.986C71.1097 145.633 70.849 145.36 70.5122 145.168C70.1754 144.967 69.7904 144.867 69.3574 144.867C68.9243 144.867 68.5394 144.967 68.2026 145.168C67.8738 145.36 67.6171 145.633 67.4327 145.986C67.2482 146.338 67.156 146.739 67.156 147.188C67.156 147.646 67.2482 148.051 67.4327 148.403C67.6171 148.756 67.8738 149.029 68.2026 149.221C68.5394 149.414 68.9243 149.51 69.3574 149.51ZM73.0107 152.108V149.39H73.119C73.4638 149.39 73.7245 149.237 73.9009 148.933C74.0854 148.628 74.2097 148.115 74.2738 147.393L74.5625 144.109H78.7487V149.39H79.7833V152.108H78.8209V150.28H73.9731V152.108H73.0107ZM77.7864 149.39V144.987H75.4527L75.2362 147.417C75.1881 147.962 75.1159 148.391 75.0196 148.704C74.9314 149.009 74.8071 149.237 74.6467 149.39H77.7864ZM86.4342 150.4C85.6723 150.4 85.0187 150.208 84.4734 149.823C83.9281 149.43 83.5471 148.897 83.3306 148.223L84.305 148.067C84.5295 148.54 84.8142 148.889 85.1591 149.113C85.5119 149.338 85.937 149.45 86.4342 149.45C86.9715 149.45 87.4006 149.33 87.7213 149.089C88.0501 148.849 88.2145 148.524 88.2145 148.115C88.2145 147.682 88.0461 147.349 87.7093 147.116C87.3725 146.884 86.8913 146.667 86.2658 146.467C85.7365 146.29 85.2994 146.114 84.9546 145.937C84.6097 145.753 84.321 145.504 84.0885 145.192C83.8559 144.871 83.7396 144.47 83.7396 143.989C83.7396 143.532 83.8559 143.131 84.0885 142.786C84.321 142.433 84.6418 142.16 85.0508 141.968C85.4598 141.775 85.9209 141.679 86.4342 141.679C87.1159 141.679 87.7053 141.859 88.2025 142.22C88.7077 142.573 89.0646 143.062 89.2731 143.688L88.3108 143.844C88.1424 143.451 87.8938 143.151 87.565 142.942C87.2442 142.726 86.8673 142.617 86.4342 142.617C85.953 142.617 85.5601 142.738 85.2553 142.978C84.9506 143.219 84.7982 143.532 84.7982 143.916C84.7982 144.213 84.8864 144.466 85.0628 144.674C85.2473 144.875 85.4718 145.039 85.7365 145.168C86.0011 145.296 86.338 145.428 86.747 145.564C87.2602 145.741 87.6933 145.921 88.0461 146.106C88.399 146.29 88.6917 146.543 88.9243 146.864C89.1568 147.176 89.2731 147.569 89.2731 148.043C89.2731 148.508 89.1488 148.921 88.9002 149.282C88.6596 149.634 88.3228 149.911 87.8898 150.112C87.4647 150.304 86.9795 150.4 86.4342 150.4ZM94.1583 149.414L94.0741 150.28H93.0516C92.4421 150.28 91.9729 150.124 91.6441 149.811C91.3234 149.498 91.163 149.049 91.163 148.464V144.975H90.0563V144.109H91.163L91.4757 142.305H92.1253V144.109H94.0741V144.975H92.1253V148.464C92.1253 149.097 92.4341 149.414 93.0516 149.414H94.1583ZM98.0916 150.4C97.4741 150.4 96.9207 150.264 96.4315 149.991C95.9423 149.719 95.5614 149.338 95.2887 148.849C95.0161 148.359 94.8797 147.806 94.8797 147.188C94.8797 146.571 95.0161 146.022 95.2887 145.54C95.5614 145.051 95.9423 144.67 96.4315 144.398C96.9207 144.125 97.4741 143.989 98.0916 143.989C98.7091 143.989 99.2624 144.125 99.7516 144.398C100.249 144.67 100.634 145.051 100.906 145.54C101.179 146.022 101.315 146.571 101.315 147.188C101.315 147.806 101.179 148.359 100.906 148.849C100.634 149.338 100.253 149.719 99.7637 149.991C99.2745 150.264 98.7171 150.4 98.0916 150.4ZM98.0916 149.51C98.7492 149.51 99.2825 149.298 99.6915 148.873C100.1 148.44 100.305 147.878 100.305 147.188C100.305 146.739 100.213 146.338 100.028 145.986C99.8439 145.633 99.5832 145.36 99.2464 145.168C98.9096 144.967 98.5246 144.867 98.0916 144.867C97.6585 144.867 97.2736 144.967 96.9368 145.168C96.608 145.36 96.3513 145.633 96.1669 145.986C95.9824 146.338 95.8902 146.739 95.8902 147.188C95.8902 147.646 95.9824 148.051 96.1669 148.403C96.3513 148.756 96.608 149.029 96.9368 149.221C97.2736 149.414 97.6585 149.51 98.0916 149.51ZM102.642 150.28V144.109H103.291L103.532 144.987C103.877 144.402 104.406 144.109 105.12 144.109H105.432L105.529 145.035H104.975C104.51 145.035 104.165 145.18 103.941 145.468C103.716 145.749 103.604 146.118 103.604 146.575V150.28H102.642ZM112.189 147.176C112.189 147.281 112.185 147.381 112.177 147.477H106.956C107.012 148.095 107.241 148.588 107.642 148.957C108.043 149.326 108.552 149.51 109.17 149.51C109.603 149.51 109.988 149.422 110.325 149.245C110.661 149.069 110.91 148.836 111.07 148.548L111.973 148.692C111.724 149.245 111.343 149.671 110.83 149.967C110.317 150.256 109.747 150.4 109.122 150.4C108.504 150.4 107.955 150.264 107.474 149.991C106.992 149.719 106.615 149.338 106.343 148.849C106.078 148.359 105.946 147.806 105.946 147.188C105.946 146.571 106.078 146.022 106.343 145.54C106.607 145.051 106.976 144.67 107.45 144.398C107.923 144.125 108.46 143.989 109.061 143.989C109.663 143.989 110.2 144.125 110.673 144.398C111.147 144.67 111.515 145.051 111.78 145.54C112.053 146.022 112.189 146.567 112.189 147.176ZM109.061 144.855C108.532 144.855 108.079 145.019 107.702 145.348C107.333 145.669 107.097 146.102 106.992 146.647H111.143C111.046 146.11 110.81 145.677 110.433 145.348C110.064 145.019 109.607 144.855 109.061 144.855ZM113.968 149.775H112.849L114.858 147.14L112.861 144.518H113.968L115.965 147.14L113.968 149.775ZM116.398 149.775H115.279L117.264 147.14L115.279 144.518H116.398L118.383 147.14L116.398 149.775Z" fill="white"/>
<path d="M25.5469 152.084H112.55V152.686H25.5469V152.084Z" fill="white"/>
</g>
<a href="https://vk.com/market-197700721">
<rect fill="black" fill-opacity="0" x="15.3069" y="41.3209" width="87.0031" height="15.0367"/>
</a>
<g id="Vector 21">
<path d="M118.044 555.52C103.628 585.991 72.6705 614.869 51.2003 625.213V645.343L124.199 656.278C136.255 647.296 169.891 607.071 173.581 563.711L118.044 555.52Z" fill="#17D685"/>
<path d="M173.581 563.711L173.631 563.369L173.953 563.416L173.926 563.741L173.581 563.711ZM51.2003 625.213H50.8539L51.0499 624.901L51.2003 625.213ZM118.044 555.52L117.731 555.372L117.841 555.14L118.095 555.177L118.044 555.52ZM51.2003 645.343L51.149 645.686L50.8539 645.641V645.343H51.2003ZM124.199 656.278L124.406 656.556L124.29 656.642L124.148 656.621L124.199 656.278ZM173.906 563.829C168.683 578.299 151.479 614.076 124.416 635.826L123.982 635.286C150.902 613.65 168.05 578.011 173.255 563.594L173.906 563.829ZM51.0499 624.901C61.7389 619.751 74.8145 609.973 87.0217 597.67C99.2272 585.369 110.544 570.563 117.731 555.372L118.357 555.668C111.128 570.948 99.7584 585.817 87.5135 598.158C75.2703 610.498 62.1319 620.331 51.3507 625.525L51.0499 624.901ZM118.095 555.177L173.631 563.369L173.53 564.054L117.993 555.863L118.095 555.177ZM51.2489 624.87L124.248 635.213L124.15 635.899L51.1517 625.556L51.2489 624.87ZM51.5467 625.213V645.343H50.8539V625.213H51.5467ZM51.2516 645L124.25 655.935L124.148 656.621L51.149 645.686L51.2516 645ZM123.992 656C129.973 651.544 141.369 639.28 151.733 622.702C162.094 606.13 171.397 585.287 173.235 563.682L173.926 563.741C172.075 585.495 162.714 606.445 152.321 623.07C141.93 639.69 130.48 652.03 124.406 656.556L123.992 656ZM124.546 635.556V656.278H123.853V635.556H124.546Z" fill="white"/>
</g>
<g id="Vector 24">
<path d="M512.844 385C498.428 415.471 467.47 444.349 446 454.693V474.823L518.999 485.758C531.054 476.776 564.691 436.551 568.38 393.191L512.844 385Z" fill="#17D685"/>
<path d="M568.38 393.191L568.431 392.849L568.753 392.896L568.726 393.221L568.38 393.191ZM446 454.693H445.654L445.85 454.381L446 454.693ZM512.844 385L512.531 384.852L512.64 384.62L512.894 384.657L512.844 385ZM446 474.823L445.949 475.166L445.654 475.121V474.823H446ZM518.999 485.758L519.206 486.036L519.09 486.122L518.948 486.101L518.999 485.758ZM568.706 393.309C563.482 407.779 546.278 443.556 519.216 465.306L518.782 464.766C545.702 443.13 562.85 407.491 568.055 393.074L568.706 393.309ZM445.85 454.381C456.539 449.231 469.614 439.453 481.821 427.15C494.027 414.849 505.344 400.043 512.531 384.852L513.157 385.148C505.928 400.428 494.558 415.297 482.313 427.638C470.07 439.978 456.932 449.811 446.15 455.005L445.85 454.381ZM512.894 384.657L568.431 392.849L568.33 393.534L512.793 385.343L512.894 384.657ZM446.049 454.35L519.047 464.693L518.95 465.379L445.951 455.036L446.049 454.35ZM446.347 454.693V474.823H445.654V454.693H446.347ZM446.051 474.48L519.05 485.415L518.948 486.101L445.949 475.166L446.051 474.48ZM518.792 485.48C524.773 481.024 536.169 468.76 546.533 452.182C556.894 435.61 566.197 414.767 568.035 393.162L568.726 393.221C566.874 414.975 557.514 435.925 547.121 452.55C536.73 469.17 525.28 481.51 519.206 486.036L518.792 485.48ZM519.345 465.036V485.758H518.652V465.036H519.345Z" fill="white"/>
</g>
<g id="Vector 23">
<path d="M198.257 -50.3467C183.842 -19.8755 152.884 9.00259 131.414 19.346V39.4763L204.412 50.4113C216.468 41.429 250.104 1.20393 253.794 -42.1554L198.257 -50.3467Z" fill="#17D685"/>
<path d="M253.794 -42.1554L253.844 -42.4981L254.167 -42.4506L254.139 -42.126L253.794 -42.1554ZM131.414 19.346H131.067L131.263 19.0339L131.414 19.346ZM198.257 -50.3467L197.944 -50.4948L198.054 -50.7269L198.308 -50.6894L198.257 -50.3467ZM131.414 39.4763L131.362 39.819L131.067 39.7748V39.4763H131.414ZM204.412 50.4113L204.619 50.6891L204.504 50.7753L204.361 50.7539L204.412 50.4113ZM254.12 -42.0378C248.896 -27.5677 231.692 8.20891 204.629 29.9595L204.195 29.4194C231.115 7.78349 248.263 -27.8561 253.468 -42.273L254.12 -42.0378ZM131.263 19.0339C141.952 13.8844 155.028 4.10672 167.235 -8.19645C179.441 -20.498 190.757 -35.3038 197.944 -50.4948L198.571 -50.1985C191.342 -34.9184 179.972 -20.0496 167.727 -7.70843C155.484 4.6311 142.345 14.4642 131.564 19.6581L131.263 19.0339ZM198.308 -50.6894L253.844 -42.4981L253.743 -41.8127L198.207 -50.0039L198.308 -50.6894ZM131.462 19.003L204.461 29.3464L204.364 30.0324L131.365 19.689L131.462 19.003ZM131.76 19.346V39.4763H131.067V19.346H131.76ZM131.465 39.1337L204.464 50.0687L204.361 50.7539L131.362 39.819L131.465 39.1337ZM204.205 50.1335C210.187 45.677 221.583 33.4134 231.947 16.8357C242.307 0.262882 251.61 -20.5797 253.449 -42.1848L254.139 -42.126C252.288 -20.3718 242.928 0.577858 232.534 17.203C222.144 33.8233 210.694 46.1634 204.619 50.6891L204.205 50.1335ZM204.759 29.6894V50.4113H204.066V29.6894H204.759Z" fill="white"/>
</g>
<path id="Vector 18_2" d="M143.39 434.007L143.505 433.295L144.161 433.401L144.109 434.063L143.39 434.007ZM5.77393 509.783H5.05215L5.437 509.144L5.77393 509.783ZM80.9393 423.915L80.2767 423.629L80.4995 423.113L81.0545 423.202L80.9393 423.915ZM5.77393 534.585L5.65703 535.297L5.05215 535.198V534.585H5.77393ZM87.8606 548.058L88.3171 548.617L88.0649 548.823L87.7437 548.77L87.8606 548.058ZM144.075 434.233C138.196 452.077 118.831 496.216 88.3377 523.068L87.3836 521.985C117.593 495.382 136.857 451.529 142.704 433.781L144.075 434.233ZM5.437 509.144C17.41 502.824 32.084 490.807 45.7964 475.664C59.5041 460.527 72.21 442.311 80.2767 423.629L81.602 424.201C73.4582 443.062 60.653 461.408 46.8664 476.633C33.0845 491.852 18.281 503.997 6.11086 510.421L5.437 509.144ZM81.0545 423.202L143.505 433.295L143.275 434.72L80.8242 424.627L81.0545 423.202ZM5.88466 509.069L87.9714 521.814L87.7499 523.24L5.66319 510.496L5.88466 509.069ZM6.49568 509.783V534.585H5.05215V509.783H6.49568ZM5.89082 533.873L87.9775 547.346L87.7437 548.77L5.65703 535.297L5.89082 533.873ZM87.4042 547.499C94.0882 542.042 106.881 526.968 118.526 506.558C130.164 486.162 140.607 460.52 142.67 433.951L144.109 434.063C142.024 460.917 131.48 486.768 119.78 507.274C108.087 527.767 95.1895 543.007 88.3171 548.617L87.4042 547.499ZM88.5824 522.527V548.058H87.1389V522.527H88.5824Z" fill="#0077FF"/>
<path id="Vector 25" d="M533.616 132.092L533.731 131.38L534.387 131.486L534.336 132.148L533.616 132.092ZM396 207.868H395.278L395.663 207.229L396 207.868ZM471.165 122L470.503 121.714L470.726 121.198L471.281 121.287L471.165 122ZM396 232.67L395.883 233.382L395.278 233.283V232.67H396ZM478.087 246.143L478.543 246.702L478.291 246.908L477.97 246.855L478.087 246.143ZM534.301 132.318C528.422 150.162 509.057 194.301 478.564 221.153L477.61 220.07C507.819 193.467 527.083 149.614 532.93 131.867L534.301 132.318ZM395.663 207.229C407.636 200.909 422.31 188.892 436.022 173.749C449.73 158.612 462.436 140.396 470.503 121.714L471.828 122.286C463.684 141.147 450.879 159.493 437.092 174.718C423.311 189.938 408.507 202.082 396.337 208.506L395.663 207.229ZM471.281 121.287L533.731 131.38L533.501 132.805L471.05 122.713L471.281 121.287ZM396.111 207.155L478.197 219.899L477.976 221.325L395.889 208.581L396.111 207.155ZM396.722 207.868V232.67H395.278V207.868H396.722ZM396.117 231.958L478.204 245.431L477.97 246.855L395.883 233.382L396.117 231.958ZM477.63 245.584C484.314 240.127 497.107 225.053 508.752 204.643C520.39 184.247 530.833 158.605 532.896 132.037L534.336 132.148C532.25 159.002 521.706 184.853 510.006 205.359C498.313 225.852 485.416 241.092 478.543 246.702L477.63 245.584ZM478.808 220.612V246.143H477.365V220.612H478.808Z" fill="#0077FF"/>
<g id="Blue_004DFF">
<path d="M246.092 531.698C231.677 562.169 200.719 591.047 179.249 601.391V621.521L252.247 632.456C264.303 623.474 297.939 583.249 301.629 539.889L246.092 531.698Z" fill="#004DFF"/>
<path d="M301.629 539.889L301.679 539.547L302.002 539.594L301.974 539.919L301.629 539.889ZM179.249 601.391H178.902L179.098 601.079L179.249 601.391ZM246.092 531.698L245.779 531.55L245.889 531.318L246.143 531.355L246.092 531.698ZM179.249 621.521L179.197 621.864L178.902 621.82V621.521H179.249ZM252.247 632.456L252.454 632.734L252.339 632.82L252.196 632.799L252.247 632.456ZM301.955 540.007C296.731 554.477 279.527 590.254 252.464 612.004L252.03 611.464C278.95 589.828 296.098 554.189 301.303 539.772L301.955 540.007ZM179.098 601.079C189.787 595.929 202.863 586.152 215.07 573.848C227.276 561.547 238.592 546.741 245.779 531.55L246.406 531.846C239.177 547.126 227.807 561.995 215.562 574.336C203.319 586.676 190.18 596.509 179.399 601.703L179.098 601.079ZM246.143 531.355L301.679 539.547L301.578 540.232L246.042 532.041L246.143 531.355ZM179.297 601.048L252.296 611.391L252.199 612.077L179.2 601.734L179.297 601.048ZM179.595 601.391V621.521H178.902V601.391H179.595ZM179.3 621.179L252.299 632.114L252.196 632.799L179.197 621.864L179.3 621.179ZM252.04 632.178C258.022 627.722 269.418 615.458 279.782 598.88C290.142 582.308 299.445 561.465 301.284 539.86L301.974 539.919C300.123 561.673 290.763 582.623 280.369 599.248C269.979 615.868 258.529 628.208 252.454 632.734L252.04 632.178ZM252.594 611.734V632.456H251.901V611.734H252.594Z" fill="white"/>
</g>
<g id="Blue_004DFF_2">
<path d="M401.844 366C387.428 396.471 356.47 425.349 335 435.693V455.823L407.999 466.758C420.054 457.776 453.691 417.551 457.38 374.191L401.844 366Z" fill="#004DFF"/>
<path d="M457.38 374.191L457.431 373.849L457.753 373.896L457.726 374.221L457.38 374.191ZM335 435.693H334.654L334.85 435.381L335 435.693ZM401.844 366L401.531 365.852L401.64 365.62L401.894 365.657L401.844 366ZM335 455.823L334.949 456.166L334.654 456.121V455.823H335ZM407.999 466.758L408.206 467.036L408.09 467.122L407.948 467.101L407.999 466.758ZM457.706 374.309C452.482 388.779 435.278 424.556 408.216 446.306L407.782 445.766C434.702 424.13 451.85 388.491 457.055 374.074L457.706 374.309ZM334.85 435.381C345.539 430.231 358.614 420.453 370.821 408.15C383.027 395.849 394.344 381.043 401.531 365.852L402.157 366.148C394.928 381.428 383.558 396.297 371.313 408.638C359.07 420.978 345.932 430.811 335.15 436.005L334.85 435.381ZM401.894 365.657L457.431 373.849L457.33 374.534L401.793 366.343L401.894 365.657ZM335.049 435.35L408.047 445.693L407.95 446.379L334.951 436.036L335.049 435.35ZM335.347 435.693V455.823H334.654V435.693H335.347ZM335.051 455.48L408.05 466.415L407.948 467.101L334.949 456.166L335.051 455.48ZM407.792 466.48C413.773 462.024 425.169 449.76 435.533 433.182C445.894 416.61 455.197 395.767 457.035 374.162L457.726 374.221C455.874 395.975 446.514 416.925 436.121 433.55C425.73 450.17 414.28 462.51 408.206 467.036L407.792 466.48ZM408.345 446.036V466.758H407.652V446.036H408.345Z" fill="white"/>
</g>
<path id="Vector 21_2" d="M376.061 308.925L376.111 308.583L376.434 308.63L376.406 308.955L376.061 308.925ZM253.681 370.427H253.334L253.53 370.115L253.681 370.427ZM320.524 300.734L320.211 300.586L320.321 300.354L320.575 300.391L320.524 300.734ZM253.681 390.557L253.629 390.9L253.334 390.856V390.557H253.681ZM326.679 401.492L326.886 401.77L326.771 401.856L326.628 401.835L326.679 401.492ZM376.387 309.043C371.163 323.513 353.959 359.29 326.896 381.04L326.462 380.5C353.382 358.864 370.53 323.225 375.735 308.808L376.387 309.043ZM253.53 370.115C264.219 364.965 277.295 355.188 289.502 342.884C301.707 330.583 313.024 315.777 320.211 300.586L320.837 300.882C313.608 316.162 302.239 331.031 289.994 343.372C277.751 355.712 264.612 365.545 253.831 370.739L253.53 370.115ZM320.575 300.391L376.111 308.583L376.01 309.268L320.474 301.077L320.575 300.391ZM253.729 370.084L326.728 380.427L326.631 381.113L253.632 370.77L253.729 370.084ZM254.027 370.427V390.557H253.334V370.427H254.027ZM253.732 390.215L326.731 401.15L326.628 401.835L253.629 390.9L253.732 390.215ZM326.472 401.214C332.454 396.758 343.85 384.494 354.213 367.917C364.574 351.344 373.877 330.501 375.716 308.896L376.406 308.955C374.555 330.709 365.195 351.659 354.801 368.284C344.41 384.904 332.961 397.244 326.886 401.77L326.472 401.214ZM327.026 380.77V401.492H326.333V380.77H327.026Z" fill="#0077FF"/>
<g id="Blue_004DFF_3">
<path d="M308.213 87.5738C293.797 118.045 262.84 146.923 241.369 157.266V177.397L314.368 188.332C326.424 179.35 360.06 139.124 363.75 95.7651L308.213 87.5738Z" fill="#004DFF"/>
<path d="M363.75 95.7651L363.8 95.4224L364.123 95.4699L364.095 95.7945L363.75 95.7651ZM241.369 157.266H241.023L241.219 156.954L241.369 157.266ZM308.213 87.5738L307.9 87.4257L308.01 87.1936L308.264 87.2311L308.213 87.5738ZM241.369 177.397L241.318 177.739L241.023 177.695V177.397H241.369ZM314.368 188.332L314.575 188.61L314.46 188.696L314.317 188.674L314.368 188.332ZM364.076 95.8827C358.852 110.353 341.648 146.129 314.585 167.88L314.151 167.34C341.071 145.704 358.219 110.064 363.424 95.6475L364.076 95.8827ZM241.219 156.954C251.908 151.805 264.984 142.027 277.191 129.724C289.396 117.423 300.713 102.617 307.9 87.4257L308.526 87.722C301.297 103.002 289.928 117.871 277.683 130.212C265.439 142.552 252.301 152.385 241.52 157.579L241.219 156.954ZM308.264 87.2311L363.8 95.4224L363.699 96.1078L308.163 87.9166L308.264 87.2311ZM241.418 156.923L314.417 167.267L314.32 167.953L241.321 157.61L241.418 156.923ZM241.716 157.266V177.397H241.023V157.266H241.716ZM241.421 177.054L314.42 187.989L314.317 188.674L241.318 177.739L241.421 177.054ZM314.161 188.054C320.143 183.597 331.539 171.334 341.902 154.756C352.263 138.183 361.566 117.341 363.405 95.7357L364.095 95.7945C362.244 117.549 352.883 138.498 342.49 155.123C332.099 171.744 320.649 184.084 314.575 188.61L314.161 188.054ZM314.715 167.61V188.332H314.022V167.61H314.715Z" fill="white"/>
</g>
<path id="Subtract" fill-rule="evenodd" clip-rule="evenodd" d="M268.559 66.56H267.351H267.351C260.792 66.56 257.513 66.56 255.477 64.5233C253.44 62.4865 253.44 59.208 253.44 52.6661V51.4406C253.44 44.8975 253.44 41.6201 255.477 39.5834C257.513 37.5467 260.792 37.5467 267.351 37.5467H268.559C275.118 37.5467 278.415 37.5467 280.434 39.5834C282.453 41.6201 282.453 44.8998 282.453 51.4406V52.6661L282.453 52.831C282.453 59.2633 282.453 62.5037 280.434 64.5233C278.397 66.56 275.118 66.56 268.559 66.56H268.559ZM258.342 46.3838C258.496 53.9261 262.467 58.465 269.009 58.465H269.388V54.1501C271.769 54.3915 273.547 56.1694 274.273 58.465H277.707C276.775 55.0309 274.359 53.1323 272.857 52.407C274.359 51.5099 276.481 49.335 276.981 46.3838H273.858C273.202 48.7826 271.252 50.9575 269.388 51.164V46.3838H266.212V54.7547C264.279 54.2754 261.759 51.9242 261.655 46.3838H258.342Z" fill="white"/>
<g id="Group 1321314877">
<g id="Group 1321315683">
<g id="&#209;&#132;&#208;&#184;&#208;&#189;&#208;&#176;&#208;&#187;">
<path d="M85.163 68.0318C83.9439 68.0318 82.8482 67.7782 81.876 67.2711C80.9193 66.764 80.1708 66.0572 79.6307 65.1506C79.0906 64.2286 78.8206 63.1913 78.8206 62.0389C78.8206 60.8864 79.0906 59.8645 79.6307 58.9733C80.1708 58.0667 80.9193 57.3598 81.876 56.8527C82.8482 56.3456 83.9439 56.0921 85.163 56.0921V51.7357H86.9685V56.0921C88.1876 56.0921 89.2755 56.3456 90.2323 56.8527C91.2045 57.3598 91.9607 58.0667 92.5008 58.9733C93.0409 59.8645 93.3109 60.8864 93.3109 62.0389C93.3109 63.1913 93.0409 64.2286 92.5008 65.1506C91.9607 66.0572 91.2045 66.764 90.2323 67.2711C89.2755 67.7782 88.1876 68.0318 86.9685 68.0318V72.7108H85.163V68.0318ZM85.163 57.7747C84.3142 57.7747 83.5504 57.9591 82.8714 58.3279C82.2078 58.6813 81.6909 59.1807 81.3205 59.8261C80.9501 60.4715 80.765 61.2091 80.765 62.0389C80.765 62.884 80.9501 63.637 81.3205 64.2977C81.6909 64.9431 82.2078 65.4502 82.8714 65.819C83.5504 66.1724 84.3142 66.3491 85.163 66.3491V57.7747ZM86.9685 66.3491C87.8172 66.3491 88.5734 66.1724 89.237 65.819C89.916 65.4502 90.4406 64.9431 90.811 64.2977C91.1968 63.637 91.3897 62.884 91.3897 62.0389C91.3897 61.2091 91.1968 60.4715 90.811 59.8261C90.4406 59.1807 89.916 58.6813 89.237 58.3279C88.5734 57.9591 87.8172 57.7747 86.9685 57.7747V66.3491Z" fill="white"/>
<path d="M98.7287 67.9857H95.8584V56.1612H97.6639V66.0264H97.988L103.219 56.1612H106.09V67.9857H104.284V58.1204H103.983L98.7287 67.9857Z" fill="white"/>
<path d="M117.34 61.163V56.1612H119.192V67.9857H117.34V62.8456H111.183V67.9857H109.331V56.1612H111.183V61.163H117.34Z" fill="white"/>
<path d="M126.933 55.9307C128.352 55.9307 129.471 56.4071 130.289 57.3598C131.122 58.2972 131.539 59.634 131.539 61.3704V67.9857H130.289L129.78 66.1186C128.838 67.517 127.527 68.2162 125.845 68.2162C124.641 68.2162 123.653 67.8704 122.882 67.1789C122.126 66.4874 121.748 65.5962 121.748 64.5052C121.748 63.3834 122.187 62.4922 123.067 61.8314C123.962 61.1553 125.243 60.8172 126.909 60.8172H129.687C129.625 59.7416 129.348 58.9272 128.854 58.374C128.36 57.8054 127.696 57.5212 126.863 57.5212C126.261 57.5212 125.713 57.6595 125.22 57.9361C124.741 58.2126 124.371 58.5968 124.109 59.0885L122.373 58.8119C122.712 57.9207 123.291 57.2215 124.109 56.7144C124.942 56.192 125.883 55.9307 126.933 55.9307ZM126.192 66.6257C127.226 66.6257 128.067 66.2877 128.715 65.6116C129.363 64.9354 129.687 63.9674 129.687 62.7073V62.4077H126.933C124.726 62.4077 123.622 63.0915 123.622 64.4591C123.622 65.1198 123.854 65.65 124.317 66.0495C124.78 66.4337 125.405 66.6257 126.192 66.6257Z" fill="white"/>
<path d="M136.228 56.1612H144.214V67.9857H142.362V57.8439H137.941L137.547 64.0672C137.47 65.3887 137.13 66.3952 136.529 67.0867C135.942 67.7628 135.14 68.1009 134.121 68.1009C133.843 68.1009 133.542 68.0779 133.218 68.0318L133.056 66.2569C133.257 66.2723 133.512 66.28 133.82 66.28C134.499 66.28 134.97 66.1263 135.232 65.819C135.495 65.5117 135.657 64.9431 135.718 64.1133L136.228 56.1612Z" fill="white"/>
</g>
<g id="Logo">
<g id="&#208;&#178;&#208;&#181;&#208;&#183;&#208;&#180;&#208;&#181;&#208;&#186;&#208;&#190;&#208;&#180;">
<path d="M17.9557 43.5165C18.5888 43.7534 19.0952 44.1403 19.4751 44.6773C19.8549 45.1985 20.0449 45.8065 20.0449 46.5014C20.0449 47.1648 19.8628 47.757 19.4988 48.2782C19.1348 48.7994 18.6283 49.21 17.9794 49.5101C17.3305 49.7943 16.5946 49.9365 15.7715 49.9365H10.24V37.7836H15.6054C16.7766 37.7836 17.7341 38.0915 18.478 38.7075C19.2377 39.3076 19.6175 40.0736 19.6175 41.0054C19.6175 41.5739 19.4672 42.0714 19.1665 42.4978C18.8816 42.9243 18.478 43.2638 17.9557 43.5165ZM12.1392 39.4419V42.7821H15.6054C16.2226 42.7821 16.7212 42.6321 17.101 42.332C17.4967 42.0162 17.6945 41.6134 17.6945 41.1238C17.6945 40.6342 17.4967 40.2315 17.101 39.9156C16.7212 39.5998 16.2226 39.4419 15.6054 39.4419H12.1392ZM15.7715 48.2545C16.4679 48.2545 17.0298 48.0808 17.4571 47.7333C17.9003 47.3701 18.1219 46.9042 18.1219 46.3356C18.1219 45.7671 17.9003 45.309 17.4571 44.9616C17.0298 44.6141 16.4679 44.4404 15.7715 44.4404H12.1392V48.2545H15.7715Z" fill="white"/>
<path d="M34.3918 43.8245C34.3918 44.0298 34.3839 44.2272 34.368 44.4167H24.0646C24.1754 45.6328 24.6265 46.6041 25.4178 47.3306C26.2092 48.0571 27.2142 48.4203 28.4329 48.4203C29.2875 48.4203 30.0472 48.2466 30.712 47.8991C31.3767 47.5517 31.8674 47.0937 32.1839 46.5251L33.9644 46.8094C33.4738 47.8991 32.722 48.7362 31.7091 49.3205C30.6962 49.8891 29.5724 50.1734 28.3379 50.1734C27.1192 50.1734 26.0351 49.9049 25.0855 49.3679C24.1358 48.8309 23.392 48.0808 22.8538 47.1174C22.3316 46.154 22.0704 45.0642 22.0704 43.8482C22.0704 42.6321 22.3316 41.5503 22.8538 40.6027C23.3761 39.6393 24.1042 38.8891 25.038 38.3521C25.9718 37.8151 27.0322 37.5467 28.2192 37.5467C29.4063 37.5467 30.4667 37.8151 31.4005 38.3521C32.3343 38.8891 33.0623 39.6393 33.5846 40.6027C34.1227 41.5503 34.3918 42.6242 34.3918 43.8245ZM28.2192 39.2523C27.1746 39.2523 26.2804 39.5761 25.5365 40.2236C24.8085 40.8553 24.3416 41.7082 24.1358 42.7821H32.3263C32.1364 41.724 31.6695 40.8711 30.9256 40.2236C30.1976 39.5761 29.2955 39.2523 28.2192 39.2523Z" fill="white"/>
<path d="M43.1964 43.706C43.7978 43.9113 44.2964 44.2667 44.692 44.7721C45.0877 45.2617 45.2856 45.8618 45.2856 46.5725C45.2856 47.2358 45.0956 47.8439 44.7158 48.3966C44.3359 48.9494 43.7978 49.3837 43.1014 49.6996C42.4209 50.0154 41.6295 50.1734 40.7274 50.1734C39.4928 50.1734 38.4166 49.8812 37.4986 49.2968C36.5807 48.7125 35.9792 47.9149 35.6944 46.9042L37.4512 46.6199C37.7202 47.2516 38.1317 47.7254 38.6857 48.0413C39.2554 48.3414 39.9281 48.4914 40.7036 48.4914C41.5583 48.4914 42.2151 48.3177 42.6741 47.9702C43.1331 47.607 43.3626 47.1095 43.3626 46.4777C43.3626 45.9092 43.1489 45.4591 42.7216 45.1274C42.2942 44.78 41.6216 44.6062 40.7036 44.6062H39.018V42.9006H40.7036C41.495 42.9006 42.1043 42.7426 42.5316 42.4268C42.959 42.1109 43.1726 41.6845 43.1726 41.1475C43.1726 40.5632 42.9352 40.0973 42.4604 39.7498C41.9856 39.4024 41.4 39.2286 40.7036 39.2286C40.0547 39.2286 39.4691 39.3866 38.9468 39.7024C38.4403 40.0025 38.0605 40.4289 37.8073 40.9817L36.0267 40.6737C36.3907 39.6787 37.0001 38.9128 37.8547 38.3758C38.7094 37.823 39.6828 37.5467 40.7748 37.5467C41.582 37.5467 42.3101 37.6967 42.959 37.9968C43.6237 38.2968 44.146 38.7075 44.5259 39.2286C44.9057 39.7498 45.0956 40.3421 45.0956 41.0054C45.0956 41.6529 44.9215 42.2215 44.5733 42.7111C44.2251 43.1849 43.7662 43.5165 43.1964 43.706Z" fill="white"/>
<path d="M46.3535 53.5373V48.1834H46.5672C47.2477 48.1834 47.7621 47.8833 48.1103 47.2832C48.4743 46.6831 48.7197 45.6723 48.8463 44.2509L49.416 37.7836H57.6778V48.1834H59.7195V53.5373H57.8202V49.9365H48.2528V53.5373H46.3535ZM55.7785 48.1834V39.5129H51.1728L50.7455 44.2983C50.6506 45.3722 50.5081 46.2172 50.3182 46.8331C50.1441 47.4332 49.8988 47.8833 49.5822 48.1834H55.7785Z" fill="white"/>
<path d="M73.2253 43.8245C73.2253 44.0298 73.2174 44.2272 73.2015 44.4167H62.8981C63.0089 45.6328 63.46 46.6041 64.2513 47.3306C65.0427 48.0571 66.0477 48.4203 67.2664 48.4203C68.121 48.4203 68.8807 48.2466 69.5455 47.8991C70.2102 47.5517 70.7008 47.0937 71.0174 46.5251L72.7979 46.8094C72.3073 47.8991 71.5555 48.7362 70.5426 49.3205C69.5296 49.8891 68.4059 50.1734 67.1714 50.1734C65.9527 50.1734 64.8686 49.9049 63.9189 49.3679C62.9693 48.8309 62.2255 48.0808 61.6873 47.1174C61.165 46.154 60.9039 45.0642 60.9039 43.8482C60.9039 42.6321 61.165 41.5503 61.6873 40.6027C62.2096 39.6393 62.9377 38.8891 63.8715 38.3521C64.8053 37.8151 65.8657 37.5467 67.0527 37.5467C68.2397 37.5467 69.3002 37.8151 70.2339 38.3521C71.1677 38.8891 71.8958 39.6393 72.4181 40.6027C72.9562 41.5503 73.2253 42.6242 73.2253 43.8245ZM67.0527 39.2523C66.0081 39.2523 65.1139 39.5761 64.37 40.2236C63.642 40.8553 63.1751 41.7082 62.9693 42.7821H71.1598C70.9699 41.724 70.503 40.8711 69.7591 40.2236C69.0311 39.5761 68.1289 39.2523 67.0527 39.2523Z" fill="white"/>
<path d="M20.2348 69.4458H17.7183L12.8752 64.1866H12.1392V69.4458H10.24V57.2929H12.1392V62.3862H12.8989L17.4571 57.2929H19.76L14.4421 63.1917L20.2348 69.4458Z" fill="white"/>
<path d="M27.1804 69.6827C25.9617 69.6827 24.8696 69.4142 23.9042 68.8772C22.9387 68.3403 22.1869 67.5901 21.6488 66.6267C21.1107 65.6633 20.8416 64.5736 20.8416 63.3575C20.8416 62.1414 21.1107 61.0596 21.6488 60.112C22.1869 59.1486 22.9387 58.3984 23.9042 57.8614C24.8696 57.3245 25.9617 57.056 27.1804 57.056C28.3991 57.056 29.4911 57.3245 30.4566 57.8614C31.4379 58.3984 32.1976 59.1486 32.7357 60.112C33.2738 61.0596 33.5429 62.1414 33.5429 63.3575C33.5429 64.5736 33.2738 65.6633 32.7357 66.6267C32.1976 67.5901 31.4458 68.3403 30.4803 68.8772C29.5149 69.4142 28.4149 69.6827 27.1804 69.6827ZM27.1804 67.9296C28.4782 67.9296 29.5307 67.5111 30.3379 66.6741C31.1451 65.8212 31.5487 64.7157 31.5487 63.3575C31.5487 62.4731 31.3666 61.6834 31.0026 60.9885C30.6386 60.2936 30.1242 59.7566 29.4595 59.3776C28.7947 58.9828 28.035 58.7853 27.1804 58.7853C26.3257 58.7853 25.566 58.9828 24.9013 59.3776C24.2524 59.7566 23.7459 60.2936 23.3819 60.9885C23.0179 61.6834 22.8359 62.4731 22.8359 63.3575C22.8359 64.2577 23.0179 65.0553 23.3819 65.7502C23.7459 66.4451 24.2524 66.982 24.9013 67.3611C25.566 67.7401 26.3257 67.9296 27.1804 67.9296Z" fill="white"/>
<path d="M34.3905 73.0466V67.6927H34.6041C35.2847 67.6927 35.7991 67.3927 36.1473 66.7925C36.5113 66.1924 36.7566 65.1816 36.8832 63.7602L37.453 57.2929H45.7147V67.6927H47.7564V73.0466H45.8572V69.4458H36.2897V73.0466H34.3905ZM43.8155 67.6927V59.0222H39.2098L38.7825 63.8076C38.6875 64.8815 38.5451 65.7265 38.3552 66.3424C38.1811 66.9426 37.9357 67.3927 37.6192 67.6927H43.8155Z" fill="white"/>
</g>
<g id="2022">
<path d="M51.2557 64.0197V62.6756L53.8457 60.3603C54.0877 60.1379 54.2709 59.9253 54.3951 59.7226C54.5194 59.5133 54.5815 59.2941 54.5815 59.0652C54.5815 58.7709 54.4867 58.5354 54.297 58.3588C54.1074 58.1757 53.8588 58.0841 53.5514 58.0841C53.2375 58.0841 52.9824 58.1855 52.7862 58.3883C52.59 58.5845 52.4232 58.8592 52.2858 59.2124L51.1772 59.026C51.3473 58.4177 51.6383 57.9304 52.0504 57.5642C52.469 57.1914 52.9889 57.0049 53.6103 57.0049C54.0289 57.0049 54.4049 57.0932 54.7385 57.2698C55.0721 57.4464 55.3337 57.6917 55.5234 58.0057C55.713 58.3131 55.8079 58.663 55.8079 59.0554C55.8079 59.4479 55.7065 59.8043 55.5037 60.1248C55.3075 60.4388 55.0001 60.7821 54.5815 61.1549L52.7568 62.7737V62.9307L55.8569 62.9013V64.0197H51.2557Z" fill="#0077FF"/>
<path d="M59.5312 64.0982C58.9818 64.0982 58.4946 63.951 58.0695 63.6567C57.6509 63.3624 57.3238 62.9471 57.0884 62.4107C56.8529 61.8744 56.7352 61.2596 56.7352 60.5663C56.7352 59.873 56.8529 59.2582 57.0884 58.7218C57.3238 58.1855 57.6509 57.7702 58.0695 57.4759C58.4946 57.1815 58.9818 57.0344 59.5312 57.0344C60.0806 57.0344 60.5646 57.1815 60.9832 57.4759C61.4083 57.7702 61.7386 58.1855 61.9741 58.7218C62.2095 59.2582 62.3273 59.873 62.3273 60.5663C62.3273 61.2596 62.2095 61.8744 61.9741 62.4107C61.7386 62.9471 61.4083 63.3624 60.9832 63.6567C60.5646 63.951 60.0806 64.0982 59.5312 64.0982ZM59.5312 63.019C59.8452 63.019 60.1199 62.9176 60.3553 62.7149C60.5908 62.5121 60.7739 62.2276 60.9047 61.8613C61.0355 61.4885 61.1009 61.0568 61.1009 60.5663C61.1009 60.0757 61.0355 59.6473 60.9047 59.2811C60.7739 58.9083 60.5908 58.6205 60.3553 58.4177C60.1199 58.215 59.8452 58.1136 59.5312 58.1136C59.2173 58.1136 58.9426 58.215 58.7071 58.4177C58.4717 58.6205 58.2886 58.9083 58.1578 59.2811C58.0269 59.6473 57.9615 60.0757 57.9615 60.5663C57.9615 61.0568 58.0269 61.4885 58.1578 61.8613C58.2886 62.2276 58.4717 62.5121 58.7071 62.7149C58.9426 62.9176 59.2173 63.019 59.5312 63.019Z" fill="#0077FF"/>
<path d="M63.2412 64.0197V62.6756L65.8312 60.3603C66.0732 60.1379 66.2563 59.9253 66.3806 59.7226C66.5049 59.5133 66.567 59.2941 66.567 59.0652C66.567 58.7709 66.4722 58.5354 66.2825 58.3588C66.0928 58.1757 65.8443 58.0841 65.5369 58.0841C65.223 58.0841 64.9679 58.1855 64.7717 58.3883C64.5754 58.5845 64.4087 58.8592 64.2713 59.2124L63.1627 59.026C63.3328 58.4177 63.6238 57.9304 64.0359 57.5642C64.4545 57.1914 64.9744 57.0049 65.5958 57.0049C66.0143 57.0049 66.3904 57.0932 66.724 57.2698C67.0575 57.4464 67.3192 57.6917 67.5088 58.0057C67.6985 58.3131 67.7933 58.663 67.7933 59.0554C67.7933 59.4479 67.692 59.8043 67.4892 60.1248C67.293 60.4388 66.9856 60.7821 66.567 61.1549L64.7422 62.7737V62.9307L67.8424 62.9013V64.0197H63.2412Z" fill="#0077FF"/>
<path d="M68.7501 64.0197V62.6756L71.3401 60.3603C71.5821 60.1379 71.7652 59.9253 71.8895 59.7226C72.0138 59.5133 72.0759 59.2941 72.0759 59.0652C72.0759 58.7709 71.9811 58.5354 71.7914 58.3588C71.6017 58.1757 71.3532 58.0841 71.0458 58.0841C70.7319 58.0841 70.4768 58.1855 70.2806 58.3883C70.0844 58.5845 69.9176 58.8592 69.7802 59.2124L68.6716 59.026C68.8417 58.4177 69.1327 57.9304 69.5448 57.5642C69.9634 57.1914 70.4833 57.0049 71.1047 57.0049C71.5233 57.0049 71.8993 57.0932 72.2329 57.2698C72.5665 57.4464 72.8281 57.6917 73.0177 58.0057C73.2074 58.3131 73.3022 58.663 73.3022 59.0554C73.3022 59.4479 73.2009 59.8043 72.9981 60.1248C72.8019 60.4388 72.4945 60.7821 72.0759 61.1549L70.2511 62.7737V62.9307L73.3513 62.9013V64.0197H68.7501Z" fill="#0077FF"/>
</g>
</g>
</g>
</g>
</g>
<defs>
<clipPath id="clip0_336_4277">
<rect width="568" height="568" fill="white"/>
</clipPath>
</defs>
</svg>
